<svg width="1440" height="577" fill="none" xmlns="http://www.w3.org/2000/svg">
  <path d="M0 2a2 2 0 012-2h1436c1.1 0 2 .895 2 2v286c0 159.058-128.94 288-288 288H288C128.942 576 0 447.058 0 288V2z" fill="url(#paint0_linear)"/>
  <mask id="a" maskUnits="userSpaceOnUse" x="0" y="0" width="1440" height="577">
    <path d="M0 2.5a2 2 0 012-2h1436c1.1 0 2 .895 2 2v286c0 159.058-128.94 288-288 288H288c-159.058 0-288-128.942-288-288V2.5z" fill="url(#paint1_linear)"/>
  </mask>
  <g mask="url(#a)">
    <path d="M33 777.548l52.5-122.569V-595.609L33-490.277V777.548z" fill="url(#paint2_linear)" fill-opacity=".07"/>
    <path d="M1018 495.657l52.5-122.569V-877.5L1018-772.167V495.657z" fill="url(#paint3_linear)" fill-opacity=".07"/>
    <path d="M275-658.809l72 137.891V746.906l-72-137.89V-658.809z" fill="url(#paint4_linear)" fill-opacity=".08"/>
    <path d="M1255-595.969l72 137.89V809.746l-72-137.891V-595.969z" fill="url(#paint5_linear)" fill-opacity=".08"/>
    <path d="M195-712.433l44 137.89v1214.2l-44-84.266V-712.433z" fill="url(#paint6_linear)" fill-opacity=".07"/>
    <path d="M1141-698.344l44 137.89V653.747l-44-84.267V-698.344z" fill="url(#paint7_linear)" fill-opacity=".07"/>
  </g>
  <defs>
    <linearGradient id="paint0_linear" x1="0" y1="39.168" x2="488.796" y2="812.14" gradientUnits="userSpaceOnUse">
      <stop stop-color="#504DFF"/>
      <stop offset="1" stop-color="#AA87F0"/>
    </linearGradient>
    <linearGradient id="paint1_linear" x1="0" y1="39.668" x2="488.796" y2="812.64" gradientUnits="userSpaceOnUse">
      <stop stop-color="#504DFF"/>
      <stop offset="1" stop-color="#AA87F0"/>
    </linearGradient>
    <linearGradient id="paint2_linear" x1="69" y1="777.548" x2="69" y2="-628.167" gradientUnits="userSpaceOnUse">
      <stop stop-color="#fff" stop-opacity=".33"/>
      <stop offset="1" stop-color="#fff"/>
    </linearGradient>
    <linearGradient id="paint3_linear" x1="1054" y1="495.657" x2="1054" y2="-910.058" gradientUnits="userSpaceOnUse">
      <stop stop-color="#fff" stop-opacity=".33"/>
      <stop offset="1" stop-color="#fff"/>
    </linearGradient>
    <linearGradient id="paint4_linear" x1="311" y1="-658.809" x2="311" y2="746.906" gradientUnits="userSpaceOnUse">
      <stop stop-color="#fff"/>
      <stop offset="1" stop-color="#fff" stop-opacity=".21"/>
    </linearGradient>
    <linearGradient id="paint5_linear" x1="1291" y1="-595.969" x2="1291" y2="809.746" gradientUnits="userSpaceOnUse">
      <stop stop-color="#fff"/>
      <stop offset="1" stop-color="#fff" stop-opacity=".21"/>
    </linearGradient>
    <linearGradient id="paint6_linear" x1="217" y1="-712.433" x2="217" y2="693.281" gradientUnits="userSpaceOnUse">
      <stop stop-color="#fff"/>
      <stop offset="1" stop-color="#fff" stop-opacity=".16"/>
    </linearGradient>
    <linearGradient id="paint7_linear" x1="1163" y1="-698.344" x2="1163" y2="707.37" gradientUnits="userSpaceOnUse">
      <stop stop-color="#fff"/>
      <stop offset="1" stop-color="#fff" stop-opacity=".16"/>
    </linearGradient>
  </defs>
</svg>