<svg width="320" height="29" fill="none" xmlns="http://www.w3.org/2000/svg"><path d="M10.349 28.39c-2.86 0-5.148-.793-6.864-2.379C1.795 24.425.898 22.228.794 19.42l-.039-1.56.039-1.56c.104-2.808 1.001-5.005 2.691-6.591C5.201 8.123 7.489 7.33 10.349 7.33c2.028 0 3.744.364 5.148 1.092 1.43.728 2.483 1.625 3.159 2.691.702 1.04 1.079 2.028 1.131 2.964a.742.742 0 0 1-.273.663.903.903 0 0 1-.663.273h-3.432c-.26 0-.468-.052-.624-.156-.13-.13-.26-.338-.39-.624-.39-1.014-.91-1.742-1.56-2.184-.624-.442-1.43-.663-2.418-.663-1.326 0-2.366.429-3.12 1.287-.754.832-1.157 2.106-1.209 3.822l-.039 1.443.039 1.287c.104 3.406 1.547 5.109 4.329 5.109 1.014 0 1.833-.221 2.457-.663.624-.442 1.131-1.17 1.521-2.184.13-.286.26-.481.39-.585.156-.13.364-.195.624-.195h3.432c.26 0 .481.091.663.273a.742.742 0 0 1 .273.663c-.052.91-.416 1.885-1.092 2.925-.676 1.04-1.716 1.937-3.12 2.691-1.404.754-3.146 1.131-5.226 1.131zM26.35 28a.903.903 0 0 1-.663-.273.903.903 0 0 1-.273-.663V8.695c0-.26.091-.481.273-.663a.85.85 0 0 1 .663-.312h3.16a.95.95 0 0 1 .701.273.95.95 0 0 1 .273.702v1.599a6.186 6.186 0 0 1 2.34-1.911c.962-.442 2.054-.663 3.276-.663h1.6c.285 0 .506.091.662.273.182.156.273.377.273.663v2.808c0 .26-.09.481-.273.663-.156.182-.377.273-.663.273h-3.042c-1.222 0-2.184.351-2.886 1.053s-1.053 1.664-1.053 2.886v10.725c0 .26-.09.481-.273.663a.95.95 0 0 1-.702.273H26.35zm24.414.39c-2.392 0-4.277-.78-5.655-2.34-1.378-1.586-2.067-3.731-2.067-6.435V8.656c0-.26.091-.481.273-.663a.903.903 0 0 1 .663-.273h3.432c.286 0 .507.091.663.273.182.156.273.377.273.663v10.725c0 3.224 1.417 4.836 4.251 4.836 1.352 0 2.418-.429 3.198-1.287.806-.858 1.209-2.041 1.209-3.549V8.656c0-.26.091-.481.273-.663a.903.903 0 0 1 .663-.273h3.432c.286 0 .507.091.663.273.182.156.273.377.273.663v18.408c0 .26-.091.481-.273.663-.156.182-.377.273-.663.273h-3.159a.903.903 0 0 1-.663-.273.903.903 0 0 1-.273-.663v-1.599c-1.456 1.95-3.627 2.925-6.513 2.925zM68.942 28a.903.903 0 0 1-.663-.273.903.903 0 0 1-.273-.663v-2.223c0-.364.182-.78.546-1.248l9.984-11.817h-9.282a.903.903 0 0 1-.663-.273.903.903 0 0 1-.273-.663V8.656c0-.26.09-.481.273-.663a.903.903 0 0 1 .663-.273h14.78c.287 0 .508.091.664.273.182.156.273.377.273.663v2.379c0 .364-.182.754-.546 1.17l-9.75 11.739h10.179c.286 0 .507.091.663.273.182.156.273.377.273.663v2.184c0 .26-.091.481-.273.663-.156.182-.377.273-.663.273H68.942zm23.331 0a.903.903 0 0 1-.663-.273.903.903 0 0 1-.273-.663V1.246c0-.286.091-.507.273-.663a.903.903 0 0 1 .663-.273h3.471c.286 0 .507.091.663.273.182.156.273.377.273.663v8.892c1.56-1.872 3.666-2.808 6.318-2.808 2.392 0 4.303.793 5.733 2.379 1.43 1.56 2.145 3.692 2.145 6.396v10.959c0 .26-.091.481-.273.663-.156.182-.377.273-.663.273h-3.51a.903.903 0 0 1-.663-.273.903.903 0 0 1-.273-.663V16.339c0-1.534-.377-2.717-1.131-3.549-.728-.858-1.794-1.287-3.198-1.287-1.378 0-2.47.429-3.276 1.287-.806.858-1.209 2.041-1.209 3.549v10.725c0 .26-.09.481-.273.663-.156.182-.377.273-.663.273h-3.47zm31.002.39c-1.326 0-2.548-.26-3.666-.78-1.092-.546-1.963-1.274-2.613-2.184a5.197 5.197 0 0 1-.936-3.003c0-1.768.715-3.198 2.145-4.29 1.43-1.092 3.393-1.833 5.889-2.223l5.343-.78v-.819c0-1.144-.286-2.002-.858-2.574-.572-.572-1.495-.858-2.769-.858-.858 0-1.56.169-2.106.507-.52.312-.936.624-1.248.936-.312.338-.52.559-.624.663-.104.312-.299.468-.585.468h-3.003a.932.932 0 0 1-.624-.234c-.156-.156-.234-.364-.234-.624.026-.65.338-1.391.936-2.223.624-.832 1.573-1.547 2.847-2.145 1.274-.598 2.834-.897 4.68-.897 3.068 0 5.304.689 6.708 2.067 1.404 1.378 2.106 3.185 2.106 5.421v12.246c0 .26-.091.481-.273.663-.156.182-.377.273-.663.273h-3.159a.903.903 0 0 1-.663-.273.903.903 0 0 1-.273-.663v-1.521c-.572.832-1.391 1.521-2.457 2.067-1.04.52-2.34.78-3.9.78zm1.326-3.705c1.43 0 2.6-.468 3.51-1.404.91-.936 1.365-2.301 1.365-4.095v-.819l-3.9.624c-1.508.234-2.652.611-3.432 1.131-.754.52-1.131 1.157-1.131 1.911 0 .832.351 1.482 1.053 1.95.702.468 1.547.702 2.535.702zm25.4 3.705c-2.86 0-5.148-.793-6.864-2.379-1.69-1.586-2.587-3.783-2.691-6.591l-.039-1.56.039-1.56c.104-2.808 1.001-5.005 2.691-6.591 1.716-1.586 4.004-2.379 6.864-2.379 2.028 0 3.744.364 5.148 1.092 1.43.728 2.483 1.625 3.159 2.691.702 1.04 1.079 2.028 1.131 2.964a.742.742 0 0 1-.273.663.903.903 0 0 1-.663.273h-3.432c-.26 0-.468-.052-.624-.156-.13-.13-.26-.338-.39-.624-.39-1.014-.91-1.742-1.56-2.184-.624-.442-1.43-.663-2.418-.663-1.326 0-2.366.429-3.12 1.287-.754.832-1.157 2.106-1.209 3.822l-.039 1.443.039 1.287c.104 3.406 1.547 5.109 4.329 5.109 1.014 0 1.833-.221 2.457-.663.624-.442 1.131-1.17 1.521-2.184.13-.286.26-.481.39-.585.156-.13.364-.195.624-.195h3.432c.26 0 .481.091.663.273a.742.742 0 0 1 .273.663c-.052.91-.416 1.885-1.092 2.925-.676 1.04-1.716 1.937-3.12 2.691-1.404.754-3.146 1.131-5.226 1.131zm16.04-.39a.903.903 0 0 1-.663-.273.903.903 0 0 1-.273-.663V1.246c0-.286.091-.507.273-.663a.903.903 0 0 1 .663-.273h3.159c.286 0 .507.091.663.273.182.156.273.377.273.663v13.338l6.552-6.201c.078-.052.208-.156.39-.312a1.46 1.46 0 0 1 .468-.273c.156-.052.351-.078.585-.078h3.627c.26 0 .468.078.624.234.156.156.234.364.234.624 0 .234-.13.468-.39.702l-8.034 7.527 9.009 9.672c.26.26.39.481.39.663a.78.78 0 0 1-.273.624.794.794 0 0 1-.585.234h-3.705c-.364 0-.637-.039-.819-.117a4.569 4.569 0 0 1-.624-.546l-7.449-7.839v7.566c0 .26-.091.481-.273.663-.156.182-.377.273-.663.273h-3.159zm29.33.39c-1.95 0-3.588-.286-4.914-.858-1.326-.598-2.314-1.287-2.964-2.067-.624-.806-.936-1.495-.936-2.067a.78.78 0 0 1 .273-.624.932.932 0 0 1 .624-.234h3.081c.234 0 .429.091.585.273.104.078.377.312.819.702.442.416.962.741 1.56.975a5.416 5.416 0 0 0 1.989.351c1.04 0 1.898-.208 2.574-.624.676-.416 1.014-.988 1.014-1.716 0-.546-.156-.988-.468-1.326-.286-.338-.819-.637-1.599-.897-.78-.286-1.937-.585-3.471-.897-2.21-.468-3.848-1.183-4.914-2.145-1.04-.962-1.56-2.236-1.56-3.822 0-1.04.312-2.015.936-2.925.624-.936 1.547-1.69 2.769-2.262 1.248-.598 2.73-.897 4.446-.897 1.742 0 3.25.286 4.524.858 1.274.546 2.236 1.209 2.886 1.989.676.754 1.014 1.43 1.014 2.028a.859.859 0 0 1-.273.624.794.794 0 0 1-.585.234h-2.886c-.208 0-.429-.091-.663-.273-.182-.13-.468-.377-.858-.741a4.342 4.342 0 0 0-1.365-.858c-.52-.208-1.131-.312-1.833-.312-.962 0-1.716.208-2.262.624-.52.416-.78.962-.78 1.638 0 .494.13.897.39 1.209.26.312.767.611 1.521.897.754.286 1.885.572 3.393.858 2.496.494 4.277 1.261 5.343 2.301 1.092 1.04 1.638 2.314 1.638 3.822 0 1.82-.793 3.302-2.379 4.446-1.586 1.144-3.809 1.716-6.669 1.716zm25.223-.39a.903.903 0 0 1-.663-.273.903.903 0 0 1-.273-.663v-1.989c0-.702.325-1.313.975-1.833l6.162-6.123c2.678-2.106 4.537-3.744 5.577-4.914 1.066-1.196 1.599-2.366 1.599-3.51 0-1.222-.338-2.184-1.014-2.886-.65-.702-1.638-1.053-2.964-1.053-1.3 0-2.327.39-3.081 1.17-.754.754-1.222 1.742-1.404 2.964-.078.312-.221.546-.429.702-.208.13-.442.195-.702.195h-3.471a.794.794 0 0 1-.585-.234.748.748 0 0 1-.234-.546 8.93 8.93 0 0 1 1.248-4.29c.78-1.352 1.911-2.431 3.393-3.237 1.482-.832 3.224-1.248 5.226-1.248 2.08 0 3.835.364 5.265 1.092 1.456.702 2.548 1.677 3.276 2.925.728 1.248 1.092 2.665 1.092 4.251 0 1.742-.494 3.315-1.482 4.719-.962 1.404-2.444 2.912-4.446 4.524l-5.538 5.616h11.115c.286 0 .507.091.663.273.182.156.273.377.273.663v2.769c0 .26-.091.481-.273.663-.156.182-.377.273-.663.273h-18.642zm35.807.39c-3.458 0-6.045-.962-7.761-2.886-1.69-1.924-2.613-4.446-2.769-7.566-.026-.702-.039-1.898-.039-3.588 0-1.716.013-2.938.039-3.666.13-3.068 1.066-5.564 2.808-7.488 1.742-1.924 4.316-2.886 7.722-2.886 3.432 0 6.019.962 7.761 2.886 1.742 1.924 2.665 4.42 2.769 7.488.052.728.078 1.95.078 3.666 0 1.69-.026 2.886-.078 3.588-.13 3.12-1.053 5.642-2.769 7.566-1.69 1.924-4.277 2.886-7.761 2.886zm0-4.485c1.638 0 2.86-.533 3.666-1.599.806-1.092 1.235-2.613 1.287-4.563.052-1.508.078-2.652.078-3.432 0-.858-.026-1.989-.078-3.393-.052-1.924-.481-3.432-1.287-4.524-.806-1.092-2.028-1.638-3.666-1.638-1.612 0-2.834.546-3.666 1.638-.806 1.092-1.235 2.6-1.287 4.524a103.19 103.19 0 0 0-.039 3.393c0 1.534.013 2.678.039 3.432.052 1.95.481 3.471 1.287 4.563.832 1.066 2.054 1.599 3.666 1.599zM273.492 28a.903.903 0 0 1-.663-.273.903.903 0 0 1-.273-.663v-1.989c0-.702.325-1.313.975-1.833l6.162-6.123c2.678-2.106 4.537-3.744 5.577-4.914 1.066-1.196 1.599-2.366 1.599-3.51 0-1.222-.338-2.184-1.014-2.886-.65-.702-1.638-1.053-2.964-1.053-1.3 0-2.327.39-3.081 1.17-.754.754-1.222 1.742-1.404 2.964-.078.312-.221.546-.429.702-.208.13-.442.195-.702.195h-3.471a.794.794 0 0 1-.585-.234.748.748 0 0 1-.234-.546 8.93 8.93 0 0 1 1.248-4.29c.78-1.352 1.911-2.431 3.393-3.237 1.482-.832 3.224-1.248 5.226-1.248 2.08 0 3.835.364 5.265 1.092 1.456.702 2.548 1.677 3.276 2.925.728 1.248 1.092 2.665 1.092 4.251 0 1.742-.494 3.315-1.482 4.719-.962 1.404-2.444 2.912-4.446 4.524l-5.538 5.616h11.115c.286 0 .507.091.663.273.182.156.273.377.273.663v2.769c0 .26-.091.481-.273.663-.156.182-.377.273-.663.273h-18.642zm35.808.39c-3.458 0-6.045-.962-7.761-2.886-1.69-1.924-2.613-4.446-2.769-7.566-.026-.702-.039-1.898-.039-3.588 0-1.716.013-2.938.039-3.666.13-3.068 1.066-5.564 2.808-7.488C303.32 1.272 305.894.31 309.3.31c3.432 0 6.019.962 7.761 2.886 1.742 1.924 2.665 4.42 2.769 7.488.052.728.078 1.95.078 3.666 0 1.69-.026 2.886-.078 3.588-.13 3.12-1.053 5.642-2.769 7.566-1.69 1.924-4.277 2.886-7.761 2.886zm0-4.485c1.638 0 2.86-.533 3.666-1.599.806-1.092 1.235-2.613 1.287-4.563.052-1.508.078-2.652.078-3.432 0-.858-.026-1.989-.078-3.393-.052-1.924-.481-3.432-1.287-4.524-.806-1.092-2.028-1.638-3.666-1.638-1.612 0-2.834.546-3.666 1.638-.806 1.092-1.235 2.6-1.287 4.524a103.19 103.19 0 0 0-.039 3.393c0 1.534.013 2.678.039 3.432.052 1.95.481 3.471 1.287 4.563.832 1.066 2.054 1.599 3.666 1.599z" fill="#222"/></svg>