<svg width="451" height="21" viewBox="0 0 451 21" fill="none" xmlns="http://www.w3.org/2000/svg"><path d="M4.33932 20C4.03332 20 3.79032 19.919 3.61032 19.757C3.43032 19.577 3.32232 19.361 3.28632 19.109L0.343324 1.856C0.325323 1.802 0.316323 1.739 0.316323 1.667C0.316323 1.523 0.370323 1.397 0.478324 1.289C0.604324 1.163 0.739324 1.1 0.883324 1.1H4.23132C4.73532 1.1 5.01432 1.298 5.06832 1.694L6.82332 12.224L8.76732 6.014C8.96532 5.528 9.26232 5.285 9.65832 5.285H11.6023C12.0523 5.285 12.3493 5.528 12.4933 6.014L14.4373 12.224L16.1923 1.694C16.2463 1.298 16.5253 1.1 17.0293 1.1H20.3773C20.5393 1.1 20.6743 1.163 20.7823 1.289C20.9083 1.397 20.9713 1.523 20.9713 1.667L20.9443 1.856L18.0013 19.109C17.9653 19.361 17.8483 19.577 17.6503 19.757C17.4703 19.919 17.2363 20 16.9483 20H14.3833C14.0953 20 13.8703 19.928 13.7083 19.784C13.5463 19.64 13.4293 19.478 13.3573 19.298L10.6303 11.576L7.90332 19.298C7.74132 19.766 7.40832 20 6.90432 20H4.33932ZM25.7788 20C25.5988 20 25.4368 19.937 25.2928 19.811C25.1668 19.667 25.1038 19.505 25.1038 19.325V1.775C25.1038 1.577 25.1668 1.415 25.2928 1.289C25.4368 1.163 25.5988 1.1 25.7788 1.1H38.3878C38.5858 1.1 38.7478 1.163 38.8738 1.289C38.9998 1.415 39.0628 1.577 39.0628 1.775V4.313C39.0628 4.493 38.9998 4.655 38.8738 4.799C38.7478 4.925 38.5858 4.988 38.3878 4.988H29.7748V8.633H37.7938C37.9918 8.633 38.1538 8.705 38.2798 8.849C38.4058 8.975 38.4688 9.137 38.4688 9.335V11.684C38.4688 11.864 38.4058 12.026 38.2798 12.17C38.1538 12.296 37.9918 12.359 37.7938 12.359H29.7748V16.112H38.6038C38.8018 16.112 38.9638 16.175 39.0898 16.301C39.2158 16.427 39.2788 16.589 39.2788 16.787V19.325C39.2788 19.505 39.2158 19.667 39.0898 19.811C38.9638 19.937 38.8018 20 38.6038 20H25.7788ZM43.4549 7.634C43.2929 7.634 43.1579 7.58 43.0499 7.472C42.9599 7.364 42.9239 7.211 42.9419 7.013L43.7519 1.748C43.7879 1.496 43.8869 1.28 44.0489 1.1C44.2109 0.919999 44.4359 0.829999 44.7239 0.829999H47.8829C48.0269 0.829999 48.1439 0.883999 48.2339 0.991998C48.3419 1.1 48.3959 1.226 48.3959 1.37C48.3959 1.478 48.3779 1.577 48.3419 1.667L46.3169 6.878C46.2089 7.112 46.0829 7.301 45.9389 7.445C45.7949 7.571 45.5879 7.634 45.3179 7.634H43.4549ZM52.8421 20C52.6621 20 52.5001 19.937 52.3561 19.811C52.2301 19.667 52.1671 19.505 52.1671 19.325V1.775C52.1671 1.577 52.2301 1.415 52.3561 1.289C52.5001 1.163 52.6621 1.1 52.8421 1.1H60.1861C62.5441 1.1 64.3801 1.64 65.6941 2.72C67.0261 3.782 67.6921 5.294 67.6921 7.256C67.6921 8.516 67.3951 9.587 66.8011 10.469C66.2071 11.351 65.3881 12.026 64.3441 12.494L68.0431 19.136C68.0971 19.244 68.1241 19.343 68.1241 19.433C68.1241 19.577 68.0611 19.712 67.9351 19.838C67.8271 19.946 67.7011 20 67.5571 20H63.9661C63.4441 20 63.0751 19.757 62.8591 19.271L59.7811 13.331H57.0271V19.325C57.0271 19.523 56.9551 19.685 56.8111 19.811C56.6851 19.937 56.5231 20 56.3251 20H52.8421ZM60.1321 9.497C60.9601 9.497 61.5901 9.299 62.0221 8.903C62.4541 8.489 62.6701 7.922 62.6701 7.202C62.6701 6.482 62.4541 5.915 62.0221 5.501C61.6081 5.069 60.9781 4.853 60.1321 4.853H57.0271V9.497H60.1321ZM72.8601 20C72.6801 20 72.5181 19.937 72.3741 19.811C72.2481 19.667 72.1851 19.505 72.1851 19.325V1.775C72.1851 1.577 72.2481 1.415 72.3741 1.289C72.5181 1.163 72.6801 1.1 72.8601 1.1H85.4691C85.6671 1.1 85.8291 1.163 85.9551 1.289C86.0811 1.415 86.1441 1.577 86.1441 1.775V4.313C86.1441 4.493 86.0811 4.655 85.9551 4.799C85.8291 4.925 85.6671 4.988 85.4691 4.988H76.8561V8.633H84.8751C85.0731 8.633 85.2351 8.705 85.3611 8.849C85.4871 8.975 85.5501 9.137 85.5501 9.335V11.684C85.5501 11.864 85.4871 12.026 85.3611 12.17C85.2351 12.296 85.0731 12.359 84.8751 12.359H76.8561V16.112H85.6851C85.8831 16.112 86.0451 16.175 86.1711 16.301C86.2971 16.427 86.3601 16.589 86.3601 16.787V19.325C86.3601 19.505 86.2971 19.667 86.1711 19.811C86.0451 19.937 85.8831 20 85.6851 20H72.8601ZM98.5522 20C98.3722 20 98.2102 19.937 98.0662 19.811C97.9402 19.667 97.8772 19.505 97.8772 19.325V1.775C97.8772 1.577 97.9402 1.415 98.0662 1.289C98.2102 1.163 98.3722 1.1 98.5522 1.1H101.414C101.864 1.1 102.17 1.271 102.332 1.613L108.92 11.981V1.775C108.92 1.577 108.983 1.415 109.109 1.289C109.253 1.163 109.415 1.1 109.595 1.1H112.835C113.033 1.1 113.195 1.163 113.321 1.289C113.447 1.415 113.51 1.577 113.51 1.775V19.298C113.51 19.496 113.447 19.667 113.321 19.811C113.195 19.937 113.033 20 112.835 20H109.946C109.55 20 109.253 19.829 109.055 19.487L102.467 9.497V19.325C102.467 19.505 102.404 19.667 102.278 19.811C102.152 19.937 101.99 20 101.792 20H98.5522ZM126.355 20.27C123.817 20.27 121.819 19.649 120.361 18.407C118.903 17.165 118.129 15.338 118.039 12.926C118.021 12.404 118.012 11.63 118.012 10.604C118.012 9.56 118.021 8.777 118.039 8.255C118.129 5.879 118.912 4.052 120.388 2.774C121.882 1.478 123.871 0.829999 126.355 0.829999C128.839 0.829999 130.828 1.478 132.322 2.774C133.816 4.052 134.599 5.879 134.671 8.255C134.707 9.299 134.725 10.082 134.725 10.604C134.725 11.108 134.707 11.882 134.671 12.926C134.581 15.338 133.807 17.165 132.349 18.407C130.891 19.649 128.893 20.27 126.355 20.27ZM126.355 16.382C127.345 16.382 128.128 16.085 128.704 15.491C129.298 14.897 129.613 13.988 129.649 12.764C129.685 11.72 129.703 10.982 129.703 10.55C129.703 10.082 129.685 9.344 129.649 8.336C129.613 7.112 129.298 6.203 128.704 5.609C128.11 5.015 127.327 4.718 126.355 4.718C125.383 4.718 124.6 5.015 124.006 5.609C123.43 6.203 123.115 7.112 123.061 8.336C123.043 8.84 123.034 9.578 123.034 10.55C123.034 11.504 123.043 12.242 123.061 12.764C123.115 13.988 123.43 14.897 124.006 15.491C124.582 16.085 125.365 16.382 126.355 16.382ZM143.748 20C143.568 20 143.406 19.937 143.262 19.811C143.136 19.667 143.073 19.505 143.073 19.325V5.339H138.267C138.087 5.339 137.925 5.276 137.781 5.15C137.655 5.006 137.592 4.844 137.592 4.664V1.775C137.592 1.577 137.655 1.415 137.781 1.289C137.925 1.163 138.087 1.1 138.267 1.1H152.793C152.991 1.1 153.153 1.163 153.279 1.289C153.405 1.415 153.468 1.577 153.468 1.775V4.664C153.468 4.862 153.405 5.024 153.279 5.15C153.153 5.276 152.991 5.339 152.793 5.339H147.987V19.325C147.987 19.505 147.924 19.667 147.798 19.811C147.672 19.937 147.51 20 147.312 20H143.748ZM170.271 20.27C168.885 20.27 167.598 20.036 166.41 19.568C165.24 19.082 164.295 18.371 163.575 17.435C162.873 16.499 162.504 15.374 162.468 14.06C162.468 13.898 162.522 13.763 162.63 13.655C162.738 13.529 162.882 13.466 163.062 13.466H166.707C166.941 13.466 167.121 13.529 167.247 13.655C167.391 13.781 167.517 13.97 167.625 14.222C167.913 15.662 168.84 16.382 170.406 16.382C171.306 16.382 171.999 16.085 172.485 15.491C172.971 14.897 173.214 14.042 173.214 12.926V5.123H164.466C164.286 5.123 164.124 5.06 163.98 4.934C163.854 4.79 163.791 4.628 163.791 4.448V1.775C163.791 1.577 163.854 1.415 163.98 1.289C164.124 1.163 164.286 1.1 164.466 1.1H177.534C177.732 1.1 177.894 1.163 178.02 1.289C178.164 1.415 178.236 1.577 178.236 1.775V13.061C178.236 14.591 177.903 15.896 177.237 16.976C176.571 18.056 175.635 18.875 174.429 19.433C173.223 19.991 171.837 20.27 170.271 20.27ZM191.139 20.27C188.601 20.27 186.612 19.649 185.172 18.407C183.75 17.165 183.039 15.293 183.039 12.791V1.775C183.039 1.577 183.102 1.415 183.228 1.289C183.372 1.163 183.534 1.1 183.714 1.1H187.197C187.395 1.1 187.557 1.163 187.683 1.289C187.827 1.415 187.899 1.577 187.899 1.775V12.764C187.899 13.934 188.169 14.816 188.709 15.41C189.267 15.986 190.068 16.274 191.112 16.274C192.138 16.274 192.93 15.977 193.488 15.383C194.046 14.789 194.325 13.916 194.325 12.764V1.775C194.325 1.577 194.388 1.415 194.514 1.289C194.658 1.163 194.82 1.1 195 1.1H198.51C198.708 1.1 198.87 1.163 198.996 1.289C199.122 1.415 199.185 1.577 199.185 1.775V12.791C199.185 15.293 198.465 17.165 197.025 18.407C195.603 19.649 193.641 20.27 191.139 20.27ZM211.163 20.27C209.453 20.27 207.986 20.018 206.762 19.514C205.538 19.01 204.611 18.353 203.981 17.543C203.369 16.715 203.045 15.815 203.009 14.843C203.009 14.699 203.063 14.573 203.171 14.465C203.297 14.339 203.441 14.276 203.603 14.276H207.005C207.221 14.276 207.392 14.321 207.518 14.411C207.662 14.483 207.806 14.6 207.95 14.762C208.184 15.23 208.562 15.617 209.084 15.923C209.606 16.229 210.299 16.382 211.163 16.382C212.189 16.382 212.972 16.22 213.512 15.896C214.052 15.572 214.322 15.131 214.322 14.573C214.322 14.177 214.178 13.853 213.89 13.601C213.62 13.349 213.188 13.124 212.594 12.926C212 12.728 211.118 12.503 209.948 12.251C207.788 11.801 206.168 11.144 205.088 10.28C204.026 9.398 203.495 8.147 203.495 6.527C203.495 5.429 203.801 4.448 204.413 3.584C205.025 2.72 205.898 2.045 207.032 1.559C208.166 1.073 209.489 0.829999 211.001 0.829999C212.567 0.829999 213.926 1.1 215.078 1.64C216.23 2.18 217.103 2.864 217.697 3.692C218.309 4.502 218.633 5.303 218.669 6.095C218.669 6.257 218.615 6.392 218.507 6.5C218.399 6.608 218.264 6.662 218.102 6.662H214.538C214.322 6.662 214.142 6.626 213.998 6.554C213.872 6.482 213.755 6.365 213.647 6.203C213.539 5.789 213.242 5.438 212.756 5.15C212.288 4.862 211.703 4.718 211.001 4.718C210.191 4.718 209.57 4.862 209.138 5.15C208.706 5.438 208.49 5.861 208.49 6.419C208.49 6.797 208.607 7.112 208.841 7.364C209.093 7.616 209.489 7.85 210.029 8.066C210.587 8.264 211.379 8.471 212.405 8.687C214.079 8.993 215.411 9.38 216.401 9.848C217.409 10.298 218.147 10.892 218.615 11.63C219.083 12.35 219.317 13.259 219.317 14.357C219.317 15.563 218.966 16.616 218.264 17.516C217.58 18.398 216.617 19.082 215.375 19.568C214.151 20.036 212.747 20.27 211.163 20.27ZM228.018 20C227.838 20 227.676 19.937 227.532 19.811C227.406 19.667 227.343 19.505 227.343 19.325V5.339H222.537C222.357 5.339 222.195 5.276 222.051 5.15C221.925 5.006 221.862 4.844 221.862 4.664V1.775C221.862 1.577 221.925 1.415 222.051 1.289C222.195 1.163 222.357 1.1 222.537 1.1H237.063C237.261 1.1 237.423 1.163 237.549 1.289C237.675 1.415 237.738 1.577 237.738 1.775V4.664C237.738 4.862 237.675 5.024 237.549 5.15C237.423 5.276 237.261 5.339 237.063 5.339H232.257V19.325C232.257 19.505 232.194 19.667 232.068 19.811C231.942 19.937 231.78 20 231.582 20H228.018ZM246.241 20C246.097 20 245.962 19.946 245.836 19.838C245.728 19.712 245.674 19.577 245.674 19.433C245.674 19.325 245.683 19.244 245.701 19.19L252.046 1.856C252.1 1.64 252.217 1.46 252.397 1.316C252.577 1.172 252.811 1.1 253.099 1.1H257.095C257.383 1.1 257.617 1.172 257.797 1.316C257.977 1.46 258.094 1.64 258.148 1.856L264.466 19.19L264.52 19.433C264.52 19.577 264.457 19.712 264.331 19.838C264.223 19.946 264.088 20 263.926 20H260.605C260.173 20 259.885 19.811 259.741 19.433L258.688 16.679H251.479L250.453 19.433C250.309 19.811 250.012 20 249.562 20H246.241ZM257.608 12.791L255.097 5.663L252.586 12.791H257.608ZM275.086 20C274.888 20 274.726 19.937 274.6 19.811C274.474 19.685 274.411 19.523 274.411 19.325V1.775C274.411 1.577 274.474 1.415 274.6 1.289C274.744 1.163 274.906 1.1 275.086 1.1H278.569C278.767 1.1 278.929 1.163 279.055 1.289C279.199 1.415 279.271 1.577 279.271 1.775V8.282H285.913V1.775C285.913 1.577 285.976 1.415 286.102 1.289C286.228 1.163 286.39 1.1 286.588 1.1H290.071C290.269 1.1 290.431 1.163 290.557 1.289C290.683 1.415 290.746 1.577 290.746 1.775V19.325C290.746 19.523 290.683 19.685 290.557 19.811C290.431 19.937 290.269 20 290.071 20H286.588C286.39 20 286.228 19.937 286.102 19.811C285.976 19.685 285.913 19.523 285.913 19.325V12.602H279.271V19.325C279.271 19.523 279.199 19.685 279.055 19.811C278.929 19.937 278.767 20 278.569 20H275.086ZM294.799 20C294.655 20 294.52 19.946 294.394 19.838C294.286 19.712 294.232 19.577 294.232 19.433C294.232 19.325 294.241 19.244 294.259 19.19L300.604 1.856C300.658 1.64 300.775 1.46 300.955 1.316C301.135 1.172 301.369 1.1 301.657 1.1H305.653C305.941 1.1 306.175 1.172 306.355 1.316C306.535 1.46 306.652 1.64 306.706 1.856L313.024 19.19L313.078 19.433C313.078 19.577 313.015 19.712 312.889 19.838C312.781 19.946 312.646 20 312.484 20H309.163C308.731 20 308.443 19.811 308.299 19.433L307.246 16.679H300.037L299.011 19.433C298.867 19.811 298.57 20 298.12 20H294.799ZM306.166 12.791L303.655 5.663L301.144 12.791H306.166ZM323.91 20.27C321.336 20.27 319.32 19.649 317.862 18.407C316.422 17.147 315.657 15.329 315.567 12.953C315.549 12.467 315.54 11.675 315.54 10.577C315.54 9.461 315.549 8.651 315.567 8.147C315.657 5.807 316.44 4.007 317.916 2.747C319.392 1.469 321.39 0.829999 323.91 0.829999C325.494 0.829999 326.916 1.1 328.176 1.64C329.436 2.162 330.426 2.918 331.146 3.908C331.884 4.88 332.262 6.023 332.28 7.337V7.391C332.28 7.535 332.217 7.661 332.091 7.769C331.983 7.859 331.857 7.904 331.713 7.904H328.068C327.834 7.904 327.654 7.859 327.528 7.769C327.402 7.661 327.294 7.472 327.204 7.202C326.952 6.284 326.556 5.645 326.016 5.285C325.476 4.907 324.765 4.718 323.883 4.718C321.759 4.718 320.661 5.906 320.589 8.282C320.571 8.768 320.562 9.515 320.562 10.523C320.562 11.531 320.571 12.296 320.589 12.818C320.661 15.194 321.759 16.382 323.883 16.382C324.765 16.382 325.485 16.193 326.043 15.815C326.601 15.419 326.988 14.78 327.204 13.898C327.276 13.628 327.375 13.448 327.501 13.358C327.627 13.25 327.816 13.196 328.068 13.196H331.713C331.875 13.196 332.01 13.25 332.118 13.358C332.244 13.466 332.298 13.601 332.28 13.763C332.262 15.077 331.884 16.229 331.146 17.219C330.426 18.191 329.436 18.947 328.176 19.487C326.916 20.009 325.494 20.27 323.91 20.27ZM337.144 20C336.964 20 336.802 19.937 336.658 19.811C336.532 19.667 336.469 19.505 336.469 19.325V1.775C336.469 1.577 336.532 1.415 336.658 1.289C336.802 1.163 336.964 1.1 337.144 1.1H340.546C340.744 1.1 340.906 1.163 341.032 1.289C341.158 1.415 341.221 1.577 341.221 1.775V7.769L346.216 1.613C346.432 1.271 346.783 1.1 347.269 1.1H351.157C351.319 1.1 351.454 1.163 351.562 1.289C351.67 1.397 351.724 1.523 351.724 1.667C351.724 1.793 351.697 1.901 351.643 1.991L345.163 10.145L352.129 19.109C352.201 19.181 352.237 19.289 352.237 19.433C352.237 19.577 352.183 19.712 352.075 19.838C351.967 19.946 351.832 20 351.67 20H347.647C347.215 20 346.855 19.82 346.567 19.46L341.221 12.791V19.325C341.221 19.523 341.158 19.685 341.032 19.811C340.906 19.937 340.744 20 340.546 20H337.144ZM354.642 20C354.498 20 354.363 19.946 354.237 19.838C354.129 19.712 354.075 19.577 354.075 19.433C354.075 19.325 354.084 19.244 354.102 19.19L360.447 1.856C360.501 1.64 360.618 1.46 360.798 1.316C360.978 1.172 361.212 1.1 361.5 1.1H365.496C365.784 1.1 366.018 1.172 366.198 1.316C366.378 1.46 366.495 1.64 366.549 1.856L372.867 19.19L372.921 19.433C372.921 19.577 372.858 19.712 372.732 19.838C372.624 19.946 372.489 20 372.327 20H369.006C368.574 20 368.286 19.811 368.142 19.433L367.089 16.679H359.88L358.854 19.433C358.71 19.811 358.413 20 357.963 20H354.642ZM366.009 12.791L363.498 5.663L360.987 12.791H366.009ZM379.307 20C379.127 20 378.965 19.937 378.821 19.811C378.695 19.667 378.632 19.505 378.632 19.325V5.339H373.826C373.646 5.339 373.484 5.276 373.34 5.15C373.214 5.006 373.151 4.844 373.151 4.664V1.775C373.151 1.577 373.214 1.415 373.34 1.289C373.484 1.163 373.646 1.1 373.826 1.1H388.352C388.55 1.1 388.712 1.163 388.838 1.289C388.964 1.415 389.027 1.577 389.027 1.775V4.664C389.027 4.862 388.964 5.024 388.838 5.15C388.712 5.276 388.55 5.339 388.352 5.339H383.546V19.325C383.546 19.505 383.483 19.667 383.357 19.811C383.231 19.937 383.069 20 382.871 20H379.307ZM393.506 20C393.308 20 393.146 19.937 393.02 19.811C392.894 19.685 392.831 19.523 392.831 19.325V1.775C392.831 1.577 392.894 1.415 393.02 1.289C393.164 1.163 393.326 1.1 393.506 1.1H396.989C397.187 1.1 397.349 1.163 397.475 1.289C397.619 1.415 397.691 1.577 397.691 1.775V8.282H404.333V1.775C404.333 1.577 404.396 1.415 404.522 1.289C404.648 1.163 404.81 1.1 405.008 1.1H408.491C408.689 1.1 408.851 1.163 408.977 1.289C409.103 1.415 409.166 1.577 409.166 1.775V19.325C409.166 19.523 409.103 19.685 408.977 19.811C408.851 19.937 408.689 20 408.491 20H405.008C404.81 20 404.648 19.937 404.522 19.811C404.396 19.685 404.333 19.523 404.333 19.325V12.602H397.691V19.325C397.691 19.523 397.619 19.685 397.475 19.811C397.349 19.937 397.187 20 396.989 20H393.506ZM422.021 20.27C419.483 20.27 417.485 19.649 416.027 18.407C414.569 17.165 413.795 15.338 413.705 12.926C413.687 12.404 413.678 11.63 413.678 10.604C413.678 9.56 413.687 8.777 413.705 8.255C413.795 5.879 414.578 4.052 416.054 2.774C417.548 1.478 419.537 0.829999 422.021 0.829999C424.505 0.829999 426.494 1.478 427.988 2.774C429.482 4.052 430.265 5.879 430.337 8.255C430.373 9.299 430.391 10.082 430.391 10.604C430.391 11.108 430.373 11.882 430.337 12.926C430.247 15.338 429.473 17.165 428.015 18.407C426.557 19.649 424.559 20.27 422.021 20.27ZM422.021 16.382C423.011 16.382 423.794 16.085 424.37 15.491C424.964 14.897 425.279 13.988 425.315 12.764C425.351 11.72 425.369 10.982 425.369 10.55C425.369 10.082 425.351 9.344 425.315 8.336C425.279 7.112 424.964 6.203 424.37 5.609C423.776 5.015 422.993 4.718 422.021 4.718C421.049 4.718 420.266 5.015 419.672 5.609C419.096 6.203 418.781 7.112 418.727 8.336C418.709 8.84 418.7 9.578 418.7 10.55C418.7 11.504 418.709 12.242 418.727 12.764C418.781 13.988 419.096 14.897 419.672 15.491C420.248 16.085 421.031 16.382 422.021 16.382ZM435.546 20C435.366 20 435.204 19.937 435.06 19.811C434.934 19.667 434.871 19.505 434.871 19.325V1.775C434.871 1.577 434.934 1.415 435.06 1.289C435.204 1.163 435.366 1.1 435.546 1.1H438.408C438.858 1.1 439.164 1.271 439.326 1.613L445.914 11.981V1.775C445.914 1.577 445.977 1.415 446.103 1.289C446.247 1.163 446.409 1.1 446.589 1.1H449.829C450.027 1.1 450.189 1.163 450.315 1.289C450.441 1.415 450.504 1.577 450.504 1.775V19.298C450.504 19.496 450.441 19.667 450.315 19.811C450.189 19.937 450.027 20 449.829 20H446.94C446.544 20 446.247 19.829 446.049 19.487L439.461 9.497V19.325C439.461 19.505 439.398 19.667 439.272 19.811C439.146 19.937 438.984 20 438.786 20H435.546Z" fill="#2E2C5F"/></svg>
