<svg width="89" height="52" viewBox="0 0 89 52" fill="none" xmlns="http://www.w3.org/2000/svg"><path d="M4.17947 5.42002C4.22387 5.57658 4.20566 5.72409 4.12484 5.86254C4.05745 5.99655 3.93649 6.08129 3.76195 6.11675C3.59639 6.13435 3.45333 6.0961 3.33275 6.002C3.21666 5.89897 3.1521 5.76026 3.13905 5.58587L2.96788 4.05653L1.63762 4.83216C1.48979 4.92579 1.33987 4.95683 1.18784 4.92527C1.0403 4.88477 0.924194 4.79292 0.839508 4.6497C0.763807 4.48862 0.755182 4.33883 0.813635 4.20033C0.885517 4.05739 0.997568 3.95699 1.14979 3.89913L2.60049 3.28466L1.40839 2.21629C1.28786 2.09983 1.22105 1.96559 1.20796 1.81356C1.20829 1.65708 1.26897 1.52529 1.38998 1.4182C1.51099 1.31111 1.64527 1.27781 1.7928 1.3183C1.95377 1.35435 2.0878 1.43282 2.1949 1.55372L3.1991 2.62848L3.78582 1.2614C3.84432 1.10055 3.94521 0.988955 4.0885 0.926611C4.23627 0.855333 4.38612 0.857829 4.53806 0.934098C4.68999 1.01037 4.77921 1.12229 4.80574 1.26988C4.8412 1.42195 4.81627 1.57168 4.73096 1.71907L3.97663 3.0188L5.41227 3.16883C5.57328 3.18252 5.71183 3.24088 5.82792 3.34391C5.95743 3.4425 6.01531 3.57225 6.00154 3.73318C5.98777 3.89411 5.91369 4.01917 5.7793 4.10835C5.6494 4.1886 5.50172 4.21517 5.33626 4.18806L3.81374 3.87693L4.17947 5.42002ZM7.19605 10.1065C7.02533 10.446 6.93517 10.77 6.92556 11.0784C6.92488 11.3914 6.97346 11.6843 7.07129 11.9572C7.18254 12.2257 7.33636 12.4651 7.53274 12.6756C7.74254 12.8816 7.97257 13.0474 8.22281 13.1731C8.49986 13.3121 8.78596 13.3998 9.08113 13.4361C9.38079 13.4634 9.66492 13.4326 9.93351 13.3437C10.2021 13.2547 10.4529 13.1121 10.686 12.9158C10.919 12.7195 11.1141 12.465 11.2714 12.1523C11.4286 11.8396 11.5188 11.5268 11.5418 11.2139C11.5648 10.9009 11.5319 10.6103 11.443 10.3419C11.3586 10.0645 11.216 9.81391 11.0152 9.59002C10.8189 9.35719 10.5822 9.17124 10.3051 9.03216C10.0281 8.89308 9.73973 8.80987 9.44007 8.78253C9.15385 8.75073 8.86972 8.78154 8.58769 8.87494C8.31016 8.9594 8.04816 9.10202 7.80169 9.30278C7.56416 9.50803 7.36228 9.77593 7.19605 10.1065ZM4.38599 15.6612C4.30063 15.8309 4.17066 15.9447 3.99607 16.0025C3.81699 16.0693 3.63808 16.0578 3.45934 15.9681C3.28953 15.8828 3.17798 15.7485 3.1247 15.5651C3.06692 15.3906 3.08071 15.2185 3.16607 15.0488L7.27682 6.87417C7.36218 6.70443 7.49216 6.59064 7.66674 6.53282C7.84582 6.46607 8.02027 6.47532 8.19007 6.56056C8.36881 6.65029 8.48483 6.78685 8.53811 6.97025C8.59589 7.14471 8.5821 7.31682 8.49674 7.48656L8.2811 7.9154C8.47819 7.79055 8.6864 7.69926 8.90572 7.64152C9.13847 7.57933 9.37115 7.55067 9.60376 7.55555C9.84979 7.55598 10.0913 7.58769 10.3282 7.65069C10.5786 7.70925 10.8111 7.79236 11.0256 7.90004C11.4545 8.11539 11.8163 8.39768 12.1108 8.74692C12.4187 9.09171 12.6438 9.47884 12.786 9.90829C12.9282 10.3377 12.9764 10.7983 12.9306 11.29C12.8983 11.7773 12.7585 12.2666 12.5114 12.758C12.2599 13.2583 11.9481 13.6669 11.5761 13.9836C11.2176 14.296 10.8234 14.5233 10.3937 14.6656C9.9684 14.799 9.52544 14.8452 9.06477 14.8042C8.61303 14.7676 8.17267 14.6417 7.74369 14.4263C7.5292 14.3186 7.32147 14.1864 7.12051 14.0296C6.92848 13.8772 6.75662 13.707 6.60493 13.519C6.46218 13.3354 6.34406 13.1363 6.25058 12.9215C6.16604 12.7112 6.11507 12.4898 6.09768 12.2573L4.38599 15.6612ZM14.5683 16.9963C14.4829 17.166 14.3507 17.2843 14.1716 17.351C13.997 17.4088 13.8204 17.3929 13.6416 17.3031C13.4718 17.2179 13.358 17.0881 13.3003 16.9136C13.247 16.7302 13.263 16.5536 13.3484 16.3839L17.6546 7.82063C17.7399 7.65089 17.8699 7.53711 18.0445 7.47929C18.2236 7.41253 18.398 7.42178 18.5678 7.50702C18.7465 7.59675 18.8626 7.73331 18.9158 7.91671C18.9736 8.09118 18.9598 8.26328 18.8745 8.43303L14.5683 16.9963ZM22.2751 20.3447C22.078 20.4696 21.8653 20.5586 21.637 20.6119C21.4088 20.6651 21.1716 20.6915 20.9256 20.6911C20.693 20.6862 20.4537 20.6501 20.2078 20.5826C19.9664 20.5285 19.7384 20.4476 19.5239 20.34C19.095 20.1246 18.7265 19.8445 18.4186 19.4997C18.1152 19.146 17.8856 18.7567 17.73 18.3316C17.5877 17.9022 17.5328 17.4438 17.5652 16.9566C17.5975 16.4693 17.7395 15.9755 17.9911 15.4752C18.2427 14.9749 18.5545 14.5663 18.9264 14.2496C19.2984 13.9328 19.697 13.7077 20.1223 13.5743C20.561 13.4365 21.0107 13.3881 21.4713 13.4291C21.932 13.4701 22.3768 13.5983 22.8058 13.8137C23.0203 13.9213 23.2236 14.0514 23.4156 14.2037C23.6165 14.3605 23.7884 14.5307 23.9312 14.7143C24.0829 14.9023 24.2054 15.1037 24.2989 15.3185C24.3924 15.5332 24.4478 15.7569 24.4652 15.9894L24.6607 15.6008C24.746 15.431 24.876 15.3172 25.0506 15.2594C25.2297 15.1927 25.4041 15.2019 25.5739 15.2872C25.7526 15.3769 25.8687 15.5135 25.9219 15.6969C25.9797 15.8713 25.9659 16.0434 25.8806 16.2132L23.2861 21.3726C23.2007 21.5423 23.0685 21.6605 22.8894 21.7273C22.7148 21.7851 22.5382 21.7692 22.3594 21.6794C22.1896 21.5942 22.0758 21.4643 22.018 21.2899C21.9648 21.1065 21.9808 20.9299 22.0662 20.7602L22.2751 20.3447ZM23.3601 18.1536C23.5263 17.8231 23.612 17.4969 23.6172 17.175C23.6313 16.8575 23.5827 16.5646 23.4715 16.2962C23.3602 16.0277 23.2019 15.786 22.9966 15.5711C22.7913 15.3561 22.5635 15.1858 22.3133 15.0602C22.0273 14.9166 21.7345 14.8312 21.4348 14.8038C21.1441 14.781 20.86 14.8118 20.5824 14.8962C20.3138 14.9852 20.063 15.1278 19.83 15.3241C19.5969 15.5205 19.4018 15.775 19.2446 16.0876C19.0873 16.4003 18.9972 16.7131 18.9741 17.0261C18.9556 17.3301 18.9885 17.6207 19.0729 17.8981C19.1707 18.171 19.3133 18.4216 19.5007 18.6499C19.7016 18.8738 19.945 19.0575 20.231 19.2011C20.508 19.3402 20.7941 19.4279 21.0893 19.4641C21.3889 19.4915 21.6775 19.4629 21.9551 19.3785C22.2415 19.2985 22.5035 19.1559 22.7411 18.9506C22.9875 18.7499 23.1939 18.4842 23.3601 18.1536ZM27.8626 20.4642C27.7143 20.7814 27.6354 21.0942 27.6258 21.4027C27.6162 21.7112 27.658 22.0063 27.7513 22.2882C27.8581 22.5656 28.0119 22.8162 28.2127 23.0401C28.4225 23.2685 28.6659 23.4522 28.9429 23.5913C29.3898 23.8156 29.8504 23.8902 30.3247 23.815C30.5261 23.793 30.7005 23.8246 30.8479 23.9098C30.9999 23.986 31.1025 24.1159 31.1557 24.2993C31.209 24.4827 31.1818 24.6592 31.0741 24.8289C30.9753 25.0031 30.8342 25.1057 30.6507 25.1367C30.2703 25.2031 29.8834 25.2047 29.4898 25.1414C29.1052 25.0826 28.7253 24.959 28.3499 24.7706C27.9031 24.5462 27.5167 24.2572 27.1909 23.9034C26.8696 23.5407 26.6289 23.1402 26.4688 22.7017C26.3177 22.2678 26.2538 21.805 26.2772 21.3132C26.3007 20.8214 26.4382 20.3254 26.6897 19.8251C26.9368 19.3337 27.2486 18.9364 27.625 18.633C28.0149 18.3252 28.4269 18.1068 28.8611 17.9779C29.3087 17.8446 29.7673 17.8007 30.2369 17.8462C30.72 17.8873 31.1849 18.0199 31.6318 18.2443C32.0071 18.4327 32.331 18.668 32.6032 18.9501C32.88 19.2233 33.1119 19.53 33.2991 19.8701C33.3837 20.0357 33.3856 20.21 33.3047 20.3932C33.2327 20.5809 33.1072 20.7081 32.9281 20.7748C32.7759 20.8327 32.6104 20.8279 32.4316 20.7605C32.2662 20.6887 32.1367 20.5678 32.0432 20.3977C31.8204 19.9726 31.4856 19.6479 31.0387 19.4236C30.7528 19.28 30.4532 19.1968 30.1401 19.1739C29.8405 19.1465 29.5452 19.1773 29.2542 19.2662C28.9767 19.3507 28.7147 19.4933 28.4682 19.6941C28.2217 19.8948 28.0199 20.1515 27.8626 20.4642ZM39.2071 25.5213C39.4007 24.9583 39.3973 24.4419 39.197 23.9721C39.0057 23.5068 38.6553 23.1463 38.1459 22.8906C37.6275 22.6304 37.111 22.5557 36.5963 22.6666C36.0816 22.7775 35.656 23.0785 35.3195 23.5697L39.2071 25.5213ZM40.1778 26.596C40.1059 26.739 39.9983 26.8304 39.8551 26.8704C39.7118 26.9104 39.5777 26.899 39.4525 26.8362L34.841 24.5212C34.6474 25.0842 34.6575 25.6096 34.8711 26.0973C35.0938 26.5894 35.4732 26.9701 36.0094 27.2393C36.3848 27.4277 36.7133 27.5311 36.9951 27.5495C37.2903 27.5634 37.6036 27.5081 37.9349 27.3835C38.114 27.3167 38.2885 27.3036 38.4584 27.3441C38.6283 27.3847 38.7533 27.481 38.8335 27.6332C38.9092 27.7943 38.9178 27.9552 38.8593 28.1161C38.8097 28.2814 38.7089 28.393 38.5566 28.4509C38.0551 28.6914 37.5337 28.7934 36.9925 28.7566C36.4513 28.7199 35.926 28.5737 35.4166 28.318C34.9697 28.0937 34.5879 27.8069 34.271 27.4576C33.9676 27.1039 33.7403 26.71 33.5891 26.2761C33.4469 25.8466 33.392 25.3883 33.4243 24.901C33.4656 24.4182 33.6121 23.9267 33.8637 23.4264C34.1108 22.935 34.4158 22.5287 34.7789 22.2074C35.1508 21.8906 35.5495 21.6655 35.9747 21.5321C36.4134 21.3943 36.8631 21.3459 37.3238 21.3869C37.7934 21.4325 38.2516 21.5674 38.6985 21.7917C39.1453 22.016 39.5182 22.2983 39.8172 22.6387C40.1251 22.9834 40.3457 23.3683 40.479 23.7933C40.6168 24.2093 40.6606 24.6565 40.6103 25.1348C40.569 25.6176 40.4249 26.1047 40.1778 26.596ZM50.662 35.1151C50.5766 35.2849 50.4444 35.4031 50.2653 35.4699C50.0907 35.5277 49.9141 35.5117 49.7353 35.422C49.5655 35.3368 49.4517 35.2069 49.3939 35.0324C49.3406 34.8491 49.3567 34.6725 49.442 34.5027L50.9448 31.5143C51.2054 30.9961 51.2713 30.5201 51.1425 30.0862C51.0137 29.6523 50.7348 29.3277 50.3058 29.1123C50.0913 29.0047 49.8567 28.926 49.6018 28.8764C49.3469 28.8268 49.0874 28.8308 48.8234 28.8884C48.5638 28.9372 48.3175 29.0485 48.0846 29.2225C47.8516 29.3964 47.652 29.6487 47.4857 29.9793L46.0638 32.8069C45.9785 32.9766 45.8462 33.0949 45.6672 33.1616C45.4926 33.2194 45.3159 33.2035 45.1372 33.1138C44.9674 33.0285 44.8536 32.8987 44.7958 32.7242C44.7425 32.5408 44.7585 32.3642 44.8439 32.1945L49.1501 23.6312C49.2354 23.4615 49.3654 23.3477 49.54 23.2899C49.7191 23.2231 49.8935 23.2324 50.0633 23.3176C50.2421 23.4074 50.3581 23.5439 50.4114 23.7273C50.4691 23.9018 50.4554 24.0739 50.37 24.2436L48.4629 28.0361C48.6466 27.8934 48.8526 27.7954 49.0808 27.7421C49.318 27.6933 49.5529 27.6714 49.7855 27.6763C50.0271 27.6856 50.2551 27.7218 50.4697 27.7848C50.6977 27.8433 50.8967 27.9152 51.0665 28.0004C51.8529 28.3952 52.3528 28.9482 52.566 29.6595C52.7791 30.3707 52.6589 31.1663 52.2052 32.0463L50.662 35.1151ZM55.643 38.4715C55.1961 38.2472 54.8098 37.9582 54.484 37.6044C54.1716 37.2462 53.9398 36.8501 53.7887 36.4162C53.6375 35.9822 53.5737 35.5194 53.5971 35.0276C53.6294 34.5404 53.7714 34.0466 54.023 33.5463C54.2701 33.0549 54.5796 32.6508 54.9516 32.334C55.3325 32.0217 55.7401 31.8011 56.1743 31.6722C56.613 31.5344 57.0671 31.4882 57.5367 31.5338C58.0153 31.5838 58.478 31.7209 58.9248 31.9453C59.3717 32.1696 59.7535 32.4564 60.0704 32.8057C60.3962 33.1594 60.6347 33.5533 60.7858 33.9872C60.9504 34.4167 61.0165 34.8751 60.9842 35.3624C60.9607 35.8541 60.8255 36.3457 60.5784 36.837C60.3268 37.3374 60.0106 37.7437 59.6296 38.056C59.2577 38.3727 58.8479 38.5978 58.4002 38.7312C57.9616 38.869 57.5007 38.9174 57.0177 38.8763C56.548 38.8308 56.0898 38.6959 55.643 38.4715ZM56.236 37.2923C56.513 37.4313 56.8014 37.5145 57.101 37.5419C57.4007 37.5692 57.6893 37.5407 57.9668 37.4562C58.2489 37.3628 58.5086 37.2135 58.7462 37.0082C58.9926 36.8075 59.1967 36.5463 59.3585 36.2247C59.5157 35.912 59.5991 35.6014 59.6088 35.2929C59.6318 34.98 59.5944 34.6871 59.4966 34.4142C59.3987 34.1413 59.2472 33.8974 59.0419 33.6824C58.841 33.4585 58.6021 33.277 58.3251 33.1379C58.0391 32.9944 57.7462 32.9089 57.4466 32.8816C57.1514 32.8453 56.8651 32.8694 56.5875 32.9539C56.31 33.0383 56.0525 33.1832 55.8149 33.3884C55.5819 33.5847 55.3868 33.8392 55.2295 34.1519C55.0678 34.4736 54.9754 34.7908 54.9524 35.1038C54.9293 35.4167 54.9645 35.7141 55.0578 35.9959C55.1556 36.2688 55.3049 36.5172 55.5058 36.7411C55.7066 36.965 55.95 37.1487 56.236 37.2923ZM62.6104 41.1132C62.5251 41.2829 62.3928 41.4012 62.2138 41.4679C62.0392 41.5258 61.8625 41.5098 61.6838 41.4201C61.514 41.3348 61.4002 41.205 61.3424 41.0305C61.2891 40.8471 61.3051 40.6705 61.3905 40.5008L65.6967 31.9376C65.782 31.7678 65.912 31.654 66.0866 31.5962C66.2657 31.5295 66.4401 31.5387 66.6099 31.624C66.7887 31.7137 66.9047 31.8502 66.958 32.0336C67.0157 32.2081 67.002 32.3802 66.9166 32.55L62.6104 41.1132ZM74.4011 36.3071C74.4864 36.1374 74.6164 36.0236 74.791 35.9658C74.9701 35.899 75.149 35.9105 75.3277 36.0002C75.4975 36.0855 75.6091 36.2198 75.6623 36.4032C75.7201 36.5777 75.7063 36.7498 75.621 36.9195L71.3148 45.4828C71.2294 45.6525 71.0972 45.7707 70.9181 45.8375C70.7435 45.8953 70.5713 45.8816 70.4015 45.7964C70.2228 45.7066 70.1045 45.5745 70.0468 45.4001C69.9935 45.2167 70.0095 45.0401 70.0949 44.8704L70.3038 44.4549C70.1067 44.5798 69.894 44.6688 69.6657 44.7221C69.4464 44.7798 69.2137 44.8085 68.9677 44.808C68.7351 44.8032 68.4959 44.767 68.25 44.6995C68.0085 44.6454 67.7805 44.5646 67.5661 44.4569C67.1371 44.2415 66.7686 43.9615 66.4607 43.6167C66.1573 43.2629 65.9277 42.8736 65.7721 42.4486C65.6299 42.0191 65.5749 41.5608 65.6073 41.0735C65.6396 40.5862 65.7816 40.0924 66.0332 39.5921C66.2848 39.0918 66.5921 38.681 66.9551 38.3598C67.3271 38.043 67.7257 37.8179 68.151 37.6845C68.5897 37.5467 69.0394 37.4983 69.5 37.5393C69.9607 37.5803 70.4055 37.7085 70.8345 37.9239C71.2903 38.1527 71.6744 38.4574 71.9867 38.8379C72.299 39.2185 72.4681 39.6391 72.4939 40.0996L74.4011 36.3071ZM71.3888 42.2638C71.555 41.9333 71.6407 41.6071 71.6459 41.2852C71.66 40.9677 71.6114 40.6748 71.5002 40.4064C71.3889 40.1379 71.2306 39.8962 71.0253 39.6813C70.82 39.4663 70.5922 39.296 70.342 39.1704C70.056 39.0268 69.7632 38.9414 69.4635 38.914C69.1728 38.8912 68.8931 38.9242 68.6246 39.0132C68.356 39.1021 68.1051 39.2448 67.8721 39.4411C67.6391 39.6374 67.4439 39.8919 67.2867 40.2046C67.1294 40.5173 67.0393 40.8301 67.0163 41.143C66.9977 41.447 67.0306 41.7377 67.115 42.015C67.2039 42.2834 67.3421 42.5318 67.5294 42.7601C67.7303 42.984 67.9737 43.1677 68.2597 43.3113C68.5367 43.4504 68.8228 43.5381 69.118 43.5743C69.4176 43.6017 69.7062 43.5731 69.9838 43.4887C70.2702 43.4087 70.5322 43.2661 70.7698 43.0608C71.0162 42.8601 71.2226 42.5944 71.3888 42.2638ZM80.1018 46.0503C80.2954 45.4873 80.292 44.9709 80.0917 44.5011C79.9004 44.0358 79.55 43.6753 79.0405 43.4195C78.5222 43.1593 78.0057 43.0847 77.491 43.1955C76.9763 43.3064 76.5507 43.6075 76.2141 44.0987L80.1018 46.0503ZM81.0724 47.125C81.0006 47.2679 80.893 47.3594 80.7498 47.3994C80.6065 47.4394 80.4724 47.4279 80.3472 47.3651L75.7357 45.0502C75.5421 45.6132 75.5522 46.1385 75.7658 46.6262C75.9884 47.1184 76.3679 47.4991 76.9041 47.7683C77.2794 47.9567 77.608 48.0601 77.8898 48.0785C78.185 48.0924 78.4983 48.037 78.8296 47.9124C79.0087 47.8457 79.1831 47.8326 79.353 47.8731C79.5229 47.9136 79.648 48.01 79.7282 48.1621C79.8039 48.3232 79.8125 48.4842 79.754 48.645C79.7044 48.8104 79.6035 48.922 79.4513 48.9798C78.9498 49.2204 78.4284 49.3223 77.8872 49.2856C77.346 49.2489 76.8207 49.1027 76.3113 48.8469C75.8644 48.6226 75.4826 48.3358 75.1657 47.9865C74.8623 47.6328 74.635 47.239 74.4838 46.805C74.3416 46.3756 74.2867 45.9172 74.319 45.43C74.3603 44.9472 74.5068 44.4556 74.7584 43.9553C75.0055 43.464 75.3105 43.0576 75.6736 42.7364C76.0455 42.4196 76.4441 42.1945 76.8694 42.0611C77.3081 41.9233 77.7578 41.8749 78.2184 41.9159C78.6881 41.9614 79.1463 42.0963 79.5931 42.3207C80.04 42.545 80.4129 42.8273 80.7119 43.1676C81.0198 43.5124 81.2404 43.8973 81.3737 44.3222C81.5115 44.7383 81.5553 45.1854 81.505 45.6637C81.4637 46.1465 81.3195 46.6336 81.0724 47.125ZM87.2953 47.6641C87.2551 47.6327 87.2082 47.6036 87.1546 47.5767C87.1099 47.5542 87.0652 47.5318 87.0205 47.5094C86.7167 47.3568 86.4193 47.3027 86.1284 47.3469C85.8376 47.3911 85.5532 47.5113 85.2755 47.7075C85.0111 47.8993 84.7511 48.1604 84.4954 48.4908C84.2532 48.8168 84.0287 49.1852 83.822 49.5962L82.9527 51.3249C82.8673 51.4947 82.7351 51.6129 82.556 51.6797C82.3815 51.7375 82.2048 51.7215 82.0261 51.6318C81.8562 51.5466 81.7425 51.4167 81.6847 51.2423C81.6314 51.0589 81.6474 50.8823 81.7328 50.7125L84.3273 45.5532C84.4126 45.3834 84.5426 45.2696 84.7172 45.2118C84.8963 45.1451 85.0707 45.1543 85.2405 45.2395C85.4193 45.3293 85.5353 45.4658 85.5886 45.6492C85.6463 45.8237 85.6326 45.9958 85.5472 46.1656L85.1159 47.0232C85.5553 46.5501 85.9809 46.2714 86.3926 46.1871C86.8088 46.094 87.2225 46.1506 87.6336 46.3569C87.7498 46.4153 87.8704 46.487 87.9955 46.5722C88.1295 46.6618 88.2411 46.7626 88.3304 46.8745C88.4196 46.9865 88.4708 47.1073 88.4839 47.237C88.506 47.3711 88.4632 47.5119 88.3555 47.6592C88.2209 47.8378 88.0597 47.9136 87.8719 47.8864C87.693 47.8637 87.5008 47.7896 87.2953 47.6641Z" fill="#CDCDCD"/></svg>