<svg width="240" height="374" viewBox="0 0 240 374" fill="none" xmlns="http://www.w3.org/2000/svg">
<path d="M62.2628 0L104.012 20.8744V146.121L62.2628 124.667V0Z" fill="url(#paint0_linear)"/>
<path d="M202.005 25.5132L160.257 46.3876V171.634L202.005 150.18V25.5132Z" fill="url(#paint1_linear)"/>
<path d="M251.983 204.968V374L186.214 340.517C182.719 338.734 178.578 338.734 175.084 340.517L116.15 370.52C111.844 372.713 106.758 372.739 102.431 370.593L44.5878 341.943C40.9614 340.147 40.8491 335.01 44.4028 333.063L72.1586 317.823C76.7031 315.327 76.5842 308.764 71.9538 306.433L4.38083 272.416C-1.14788 269.629 -1.1743 261.746 4.33459 258.926L122.445 198.524C129.123 195.11 137.03 195.116 143.701 198.543L176.596 215.44C179.133 216.741 182.138 216.741 184.675 215.44L220.628 196.972C225.383 194.529 231.018 194.496 235.8 196.886L251.983 204.968Z" fill="url(#paint2_linear)"/>
<path d="M141.231 234.291L73.9553 268.361C67.5348 271.61 67.5414 280.775 73.9619 284.023L149.745 322.326C157.85 326.42 167.415 326.44 175.533 322.379L234.169 293.036C240.616 289.807 240.635 280.616 234.208 277.361L149.171 234.297C146.674 233.03 143.728 233.03 141.231 234.291Z" fill="#79E2CE"/>
<path d="M97.5034 243.904L164.786 279.005L165.446 306.624L87.0801 267.331L94.0158 245.562C94.465 243.964 96.1163 243.185 97.5034 243.904Z" fill="#F8FFFE"/>
<path d="M164.535 278.602L165.44 306.625L217.325 280.022L209.907 258.926C208.599 256.285 205.766 255.261 203.407 256.588L164.535 278.602Z" fill="#92FCED"/>
<path d="M137.519 223.641L95.4822 243.892C93.2363 244.975 93.2363 248.164 95.4822 249.247L163.478 281.997C164.29 282.393 165.242 282.393 166.061 281.997L206.228 262.65C209.114 261.257 209.121 257.15 206.241 255.751L140.115 223.648C139.289 223.245 138.338 223.245 137.519 223.641Z" fill="#AEFDF2"/>
<path d="M108.7 169.696C109.235 165.364 112.722 163.278 117.28 161.997C132.558 156.325 146.02 167.16 145.828 177.54C145.63 188.23 145.775 198.926 145.809 209.623C145.815 211.207 145.729 212.799 146.211 214.35C146.753 216.12 147.777 217.619 150.228 217.804C152.698 217.982 154.006 216.635 154.838 214.945C155.565 213.472 155.994 211.901 156.205 210.342C156.483 208.309 157.434 206.546 158.755 204.875C159.475 197.493 159.858 189.979 169.192 185.806C176.147 182.954 183.056 182.769 190.448 185.073C203.11 189.029 214.676 194.694 226.328 200.187C239.242 206.275 252.433 211.993 264.917 218.702C266.68 219.646 268.49 220.478 269.336 222.195C269.976 227.14 271.172 232.125 267.427 236.668C242.597 226.315 219.135 213.915 194.464 203.33C191.485 202.049 188.539 200.656 184.965 201.066C179.133 204.202 177.303 208.685 177.468 214.317C177.785 224.875 177.389 235.453 177.62 246.018C177.765 252.568 175.843 258.028 168.491 261.435C160.175 265.377 151.397 265.337 142.479 263.324C132.618 261.092 126.171 253.135 126.131 243.119C126.058 225.404 126.105 207.695 126.098 189.979C126.098 188.659 126.124 187.332 126.032 186.018C125.893 184.024 125.187 182.188 122.307 182.155C119.354 182.122 118.687 184.129 118.522 185.998C118.006 191.782 119.129 197.639 117.405 203.37C116.751 205.536 116.448 207.853 115.278 209.814C111.956 215.367 105.74 217.757 98.547 216.609C88.1105 214.945 83.8435 211.637 82.7338 204.677C80.805 192.561 82.3374 180.399 81.8354 168.269C81.7958 167.345 81.8883 166.414 81.809 165.496C81.7165 164.499 82.1855 162.954 80.5606 162.855C78.8696 162.756 79.1669 164.308 78.9621 165.298C77.9713 170.092 75.8378 171.855 70.7582 172.066C66.009 172.264 63.162 170.257 61.9599 165.727C61.656 164.578 61.7287 163.363 61.6032 162.181C61.5173 161.409 61.6362 160.504 60.5265 160.154C59.3441 159.785 58.7761 160.597 58.2542 161.224C55.6715 164.327 52.0188 164.182 48.366 163.238C44.5613 162.261 42.9166 159.62 42.5467 156.562C42.2494 154.073 42.3023 151.538 42.4344 149.035C42.6457 145.008 40.4924 142.168 36.331 140.3C30.5579 137.711 24.8244 135.057 18.8994 132.733C15.5241 131.406 13.9586 129.669 14.4672 126.586C14.9164 123.872 13.7274 121.033 15.392 118.405C17.6774 117.012 19.9695 117.632 22.0502 118.623C32.1894 123.43 42.9826 127.239 52.8048 132.561C63.2611 138.226 74.5893 142.67 85.442 147.787C93.9365 151.789 98.296 157.401 97.728 165.595C97.4638 169.418 97.6751 173.268 97.695 177.104C97.7016 178.292 97.6619 179.494 97.9988 180.656C98.3357 181.845 98.7914 183.126 100.515 183.231C102.583 183.357 103.025 181.898 103.514 180.623C104.439 178.22 104.624 175.691 105.311 173.235C105.787 171.485 106.804 170.362 108.7 169.696Z" fill="#79E2CE"/>
<path d="M108.699 169.695C107.748 173.703 106.81 177.718 105.846 181.726C105.251 184.175 104.135 186.671 100.72 186.724C96.8362 186.79 95.7595 183.938 95.601 181.435C95.2443 175.776 95.2509 170.098 95.3434 164.426C95.4425 158.371 92.8003 153.545 86.294 150.587C63.631 140.266 41.6615 128.936 18.5229 119.329C17.5321 118.92 16.429 118.702 15.3721 118.391C21.2905 112.396 26.4229 111.676 34.1578 115.202C50.9817 122.868 67.9377 130.329 84.8078 137.929C88.4606 139.573 91.902 141.541 95.568 143.159C103.587 146.698 106.018 152.772 106.883 159.613C107.306 162.987 107.2 166.44 108.699 169.695Z" fill="url(#paint3_linear)"/>
<path d="M267.599 221.62C264.52 221.125 262.09 219.554 259.461 218.312C242.115 210.092 224.901 201.667 207.351 193.75C197.859 189.471 188.261 184.882 176.814 185.133C174.271 185.186 171.735 185.569 169.192 185.8C179.925 179.158 191.848 178.649 203.824 182.314C219.069 186.982 232.306 194.905 246.375 201.475C257.248 206.553 268.101 211.663 278.96 216.754C276.06 221.138 272.183 222.796 267.599 221.62Z" fill="url(#paint4_linear)"/>
<path d="M158.755 204.868C159.079 208.322 158.583 211.709 157.645 215.07C156.701 218.45 154.884 221.025 149.977 220.768C145.974 220.557 143.635 218.378 143.51 214.152C143.325 207.826 143.437 201.494 143.424 195.169C143.417 190.553 142.915 185.892 143.523 181.336C145.267 168.249 131.356 158.569 117.286 162.003C121.719 158.616 128.218 158.193 133.219 158.695C146.707 160.048 155.267 167.014 155.003 179.098C154.845 186.466 154.931 193.848 155.016 201.217C155.036 203.145 154.838 205.522 158.755 204.868Z" fill="url(#paint5_linear)"/>
<path d="M62.2628 0L104.012 20.8744V146.121L62.2628 124.667V0Z" fill="url(#paint6_linear)"/>
<defs>
<linearGradient id="paint0_linear" x1="83.1372" y1="0" x2="83.1372" y2="146.121" gradientUnits="userSpaceOnUse">
<stop stop-color="#C3F8F5"/>
<stop offset="1" stop-color="#E3FCF8" stop-opacity="0"/>
</linearGradient>
<linearGradient id="paint1_linear" x1="181.131" y1="25.5132" x2="181.131" y2="171.634" gradientUnits="userSpaceOnUse">
<stop stop-color="#C3F8F5"/>
<stop offset="1" stop-color="#E3FCF8" stop-opacity="0"/>
</linearGradient>
<linearGradient id="paint2_linear" x1="128.765" y1="380.423" x2="126.017" y2="230.719" gradientUnits="userSpaceOnUse">
<stop stop-color="#F8F8FF"/>
<stop offset="0.2076" stop-color="#F5F8FE"/>
<stop offset="0.3835" stop-color="#EAF7FB"/>
<stop offset="0.5477" stop-color="#D9F5F6"/>
<stop offset="0.7049" stop-color="#C0F3EE"/>
<stop offset="0.8558" stop-color="#A1F1E5"/>
<stop offset="0.9415" stop-color="#8BEFDE"/>
</linearGradient>
<linearGradient id="paint3_linear" x1="15.3736" y1="149.898" x2="118.278" y2="149.898" gradientUnits="userSpaceOnUse">
<stop offset="0.3265" stop-color="#AEFCEF"/>
<stop offset="0.9898" stop-color="white"/>
</linearGradient>
<linearGradient id="paint4_linear" x1="169.19" y1="201.015" x2="278.963" y2="201.015" gradientUnits="userSpaceOnUse">
<stop stop-color="white"/>
<stop offset="1" stop-color="#ADFCEF"/>
</linearGradient>
<linearGradient id="paint5_linear" x1="117.279" y1="189.648" x2="158.852" y2="189.648" gradientUnits="userSpaceOnUse">
<stop offset="0.0359" stop-color="#ADFCEF"/>
<stop offset="0.3593" stop-color="#B0FCF0"/>
<stop offset="1" stop-color="#EFFDFC"/>
</linearGradient>
<linearGradient id="paint6_linear" x1="83.1372" y1="0" x2="83.1372" y2="146.121" gradientUnits="userSpaceOnUse">
<stop stop-color="#C3F8F5"/>
<stop offset="1" stop-color="#E3FCF8" stop-opacity="0"/>
</linearGradient>
</defs>
</svg>
