<svg width="214" height="93" viewBox="0 0 214 93" fill="none" xmlns="http://www.w3.org/2000/svg">
<path d="M17.021 21.5477C11.694 18.4314 6.96628 15.6747 2.22526 13.0245C1.49909 12.7401 0.888609 12.2215 0.490566 11.5508C0.0925238 10.8802 -0.0703096 10.0959 0.0278731 9.32224C0.187683 6.39239 0.0278731 3.44923 0.0278731 0C2.01218 1.10535 3.62359 1.97099 5.22169 2.88989C16.1687 9.18906 27.089 15.4483 37.9427 21.8274C44.6015 25.7161 49.9285 30.7634 51.8595 38.5275C52.5756 42.2358 53.1001 45.9785 53.431 49.7408C57.4262 47.4901 61.4215 45.5325 65.0838 42.9888C68.7461 40.4452 71.5294 40.3253 74.8854 42.9888C76.643 44.1955 78.4806 45.2812 80.3856 46.2383C73.4871 50.2335 66.9882 53.9891 60.4093 57.678C53.391 61.6733 46.4393 65.7884 39.2745 69.4773C30.2586 74.1118 21.2826 73.5391 12.6395 68.2787C12.2807 68.0616 11.9068 67.8702 11.5209 67.7061C11.1936 67.6654 10.8626 67.6654 10.5354 67.7061C10.5354 73.0331 10.4421 78.3601 10.5354 83.687C10.6861 84.5475 10.5386 85.4337 10.1172 86.199C9.69588 86.9642 9.02589 87.5627 8.21812 87.8954C5.6079 89.054 3.14416 90.5589 0.161048 92.2901V85.2319C0.161048 73.8854 0.347493 62.5922 0.161048 51.1924C-0.145254 38.2212 3.74345 27.6737 17.021 21.5477ZM10.602 45.9719C10.5667 48.0718 10.9457 50.158 11.7172 52.1112C12.4887 54.0645 13.6377 55.8466 15.0984 57.3555C16.5591 58.8644 18.3029 60.0707 20.2301 60.9052C22.1572 61.7398 24.23 62.1863 26.3299 62.2193C30.6298 62.2981 34.7868 60.676 37.8968 57.7056C41.0068 54.7353 42.8182 50.6571 42.9368 46.3582C42.9474 44.2262 42.5355 42.1132 41.7249 40.1414C40.9143 38.1695 39.7211 36.3777 38.2142 34.8695C36.7072 33.3614 34.9164 32.1667 32.9452 31.3545C30.974 30.5423 28.8614 30.1286 26.7294 30.1375C24.6269 30.1039 22.5387 30.4885 20.5861 31.2687C18.6334 32.0489 16.8552 33.2094 15.3548 34.6825C13.8543 36.1557 12.6615 37.9123 11.8456 39.8504C11.0297 41.7884 10.607 43.8692 10.602 45.9719Z" fill="#231E1F"/>
<path d="M103.904 60.5148C103.904 63.8441 103.744 67.1735 103.904 70.5295C104.086 71.4962 103.918 72.496 103.43 73.35C102.942 74.2041 102.166 74.8565 101.241 75.1906C99.4595 76.0762 97.7259 77.0542 96.0467 78.1205C95.9136 77.2415 95.9136 76.6289 95.9136 76.0563C95.9136 66.0948 95.9136 56.0801 95.9136 46.1718C95.9136 36.7564 103.385 30.0177 113.226 30.3507C115.363 30.4335 117.462 30.9423 119.4 31.8472C121.338 32.7521 123.076 34.035 124.511 35.6204C125.946 37.2059 127.051 39.0621 127.759 41.0801C128.467 43.098 128.765 45.2372 128.636 47.3719C128.506 49.5067 127.952 51.5941 127.005 53.5117C126.058 55.4292 124.737 57.1383 123.121 58.5387C121.504 59.9391 119.624 61.0025 117.591 61.6665C115.559 62.3306 113.413 62.582 111.282 62.4059C108.774 61.9827 106.306 61.3501 103.904 60.5148ZM112.281 54.4686C113.334 54.483 114.38 54.2861 115.355 53.8896C116.331 53.4931 117.218 52.9051 117.963 52.1602C118.708 51.4154 119.296 50.5288 119.692 49.5529C120.089 48.5769 120.286 47.5314 120.271 46.4782C120.261 44.3055 119.396 42.2241 117.863 40.6841C116.331 39.144 114.254 38.2689 112.081 38.2479C110.992 38.2205 109.908 38.4131 108.896 38.8143C107.883 39.2155 106.961 39.8169 106.186 40.5826C105.411 41.3483 104.799 42.2626 104.385 43.2706C103.972 44.2786 103.766 45.3597 103.781 46.449C103.795 47.5384 104.029 48.6137 104.469 49.6104C104.909 50.6072 105.545 51.505 106.34 52.2501C107.135 52.9951 108.072 53.5721 109.095 53.9464C110.118 54.3208 111.206 54.4848 112.294 54.4287L112.281 54.4686Z" fill="#231E1F"/>
<path d="M147.958 30.3374C150.086 30.3066 152.198 30.7043 154.169 31.5069C156.14 32.3095 157.93 33.5006 159.431 35.0091C160.932 36.5177 162.114 38.3129 162.907 40.2878C163.7 42.2627 164.087 44.377 164.046 46.5048C164.027 49.6793 163.069 52.7774 161.292 55.4082C159.516 58.039 156.999 60.0848 154.061 61.2875C151.124 62.4902 147.895 62.7961 144.784 62.1664C141.672 61.5368 138.817 59.9999 136.577 57.7495C134.338 55.4992 132.815 52.6361 132.201 49.5215C131.587 46.4069 131.909 43.1801 133.126 40.2481C134.343 37.3161 136.402 34.8102 139.041 33.0465C141.681 31.2827 144.783 30.34 147.958 30.3374ZM155.949 46.7578C156.012 45.6844 155.857 44.6092 155.495 43.5969C155.132 42.5845 154.569 41.6557 153.839 40.8661C153.109 40.0765 152.228 39.4423 151.247 39.0016C150.266 38.5609 149.206 38.3227 148.131 38.3012C147.046 38.243 145.96 38.4042 144.939 38.7753C143.917 39.1463 142.981 39.7195 142.186 40.4606C141.391 41.2017 140.754 42.0954 140.312 43.0885C139.87 44.0815 139.634 45.1534 139.616 46.2401C139.598 47.3267 139.799 48.4058 140.208 49.4129C140.616 50.4199 141.224 51.3342 141.994 52.1011C142.764 52.868 143.681 53.4718 144.69 53.8763C145.698 54.2808 146.778 54.4777 147.865 54.4553C148.902 54.5063 149.939 54.3443 150.912 53.9792C151.884 53.614 152.771 53.0536 153.519 52.3323C154.266 51.6111 154.858 50.7443 155.258 49.7856C155.657 48.8268 155.856 47.7964 155.842 46.7578H155.949Z" fill="#231E1F"/>
<path d="M180.2 31.5625C182.691 31.5625 184.768 31.6691 186.859 31.5625C187.52 31.4605 188.195 31.6107 188.75 31.9832C189.305 32.3558 189.699 32.9234 189.855 33.5735C192.199 39.0603 194.663 44.4938 197.42 50.6998C198.472 48.2627 199.258 46.4249 200.083 44.587C201.082 42.2831 202.094 39.9792 203.066 37.662C205.916 30.8301 205.916 30.8168 214 31.9088C211.563 37.5421 209.166 43.0955 206.742 48.6222C203.333 56.3996 199.777 64.1105 196.554 71.9545C195.502 74.4981 194.224 75.6434 191.48 75.2439C189.817 75.1414 188.149 75.1414 186.486 75.2439C188.39 71.0356 190.029 67.1469 191.906 63.3647C192.355 62.5487 192.59 61.6325 192.59 60.7012C192.59 59.7699 192.355 58.8537 191.906 58.0377C188.497 50.6065 185.248 43.1088 181.945 35.6377C181.359 34.3992 180.879 33.1606 180.2 31.5625Z" fill="#231E1F"/>
<path d="M176.351 61.1139H168.361V57.6913C168.361 46.4647 168.467 35.2381 168.281 24.0247C168.281 21.1348 168.973 19.3104 171.677 18.205C173.271 17.4217 174.81 16.5319 176.285 15.5415L176.351 61.1139Z" fill="#231E1F"/>
</svg>
