<svg data-name="a3693ccd-c24b-4340-ba4b-702648860cb0" xmlns="http://www.w3.org/2000/svg" xmlns:xlink="http://www.w3.org/1999/xlink" viewBox="0 0 1294.99 2010.02"><defs><linearGradient id="b" x1="8.85" y1="-811.48" x2="1046.68" y2="114.92" gradientTransform="translate(50.5 1202)" gradientUnits="userSpaceOnUse"><stop offset="0" stop-color="#ebf7fb"/><stop offset=".23" stop-color="#ededff"/><stop offset=".42" stop-color="#dbdbff"/><stop offset=".55" stop-color="#bebeff"/><stop offset=".8" stop-color="#9595ff"/><stop offset="1" stop-color="#6e6eff"/></linearGradient><linearGradient id="a" x1="666.41" y1="179.58" x2="662.58" y2="-28.65" gradientTransform="translate(320.5 1751.5)" gradientUnits="userSpaceOnUse"><stop offset="0" stop-color="#fff"/><stop offset=".31" stop-color="#fff"/><stop offset="1" stop-color="#f2f2ff"/></linearGradient><linearGradient id="c" x1="565.41" y1="263.58" x2="561.58" y2="55.35" xlink:href="#a"/></defs><path d="M525.39 1887l480.11-244.47c12.86-8.11 12.85-30.93 0-39l-113.18-71.24c-14.09-8.87-14.08-33.87 0-42.73l402.67-217-67.49-1105.27-36.7-23.21c-31.65-20-69.08-20.06-100.75-.11L735 367.51 171.69 14C142.62-4.24 108.38-4.71 79 12.73L34.5 39.15 0 1603.5 486 1887a36.08 36.08 0 0039.39 0z" transform="translate(0 .02)" fill="url(#b)"/><path d="M1020.5 1674l-72 36v216l72-37z" transform="translate(0 .02)" fill="url(#a)"/><path d="M919.5 1758l-72 36v216l72-37z" transform="translate(0 .02)" fill="url(#c)"/></svg>