<?xml version="1.0" encoding="utf-8"?>
<!-- Generator: Adobe Illustrator 23.0.1, SVG Export Plug-In . SVG Version: 6.00 Build 0)  -->
<svg class="post-landing-projects__backdrop--purpleWaves" preserveAspectRatio="none" version="1.1" id="Layer_1" xmlns="http://www.w3.org/2000/svg" xmlns:xlink="http://www.w3.org/1999/xlink" x="0px" y="0px"
	 viewBox="0 0 1152 365" style="enable-background:new 0 0 1152 365;" xml:space="preserve">
<style type="text/css">
	.st0{fill:url(#SVGID_1_);}
	.st1{fill:url(#SVGID_2_);}
</style>
<linearGradient id="SVGID_1_" gradientUnits="userSpaceOnUse" x1="575.2942" y1="914.7347" x2="578.6894" y2="1671.4635" gradientTransform="matrix(1 0 0 1 0 -852)">
	<stop  offset="0" style="stop-color:#D7C9FC"/>
	<stop  offset="0.349" style="stop-color:#FFFFFF"/>
</linearGradient>
<path class="st0" d="M1152,77.1c-6.1,2.1-16.4,4.6-28.2,2.4c-10.1-1.9-18.2-7.6-33.9-18.8c-7.5-5.4-17-12.6-28.7-22.6
	c-19.8-17-19.9-19.3-28.2-23.5c-12.7-6.5-24.5-7.3-33.4-8c-14.7-1.1-27.2,1-36.2,3.3c-58.7,22.4-117.4,44.9-176.1,67.3
	c-32.4,13-70.6,13-103,0L596.7,42c-16.4-6.6-34.8-4.3-52,0.1c0,0-197.1,53.6-286-0.1S0,77.1,0,77.1V363l1152,1.6V77.1z"/>
<linearGradient id="SVGID_2_" gradientUnits="userSpaceOnUse" x1="1200.4706" y1="79" x2="1200.4706" y2="79">
	<stop  offset="0" style="stop-color:#D7C9FC"/>
	<stop  offset="0.349" style="stop-color:#FFFFFF"/>
</linearGradient>
<path class="st1" d="M1200.5,79"/>
</svg>
