<svg width="201" height="17" viewBox="0 0 201 17" fill="none" xmlns="http://www.w3.org/2000/svg">
<path d="M1.56032 16.36L0.400323 15.98L6.46032 1.48L7.60032 1.88L1.56032 16.36ZM9.76267 16.36L8.60267 15.98L14.6627 1.48L15.8027 1.88L9.76267 16.36ZM24.9114 6.64L27.0714 14.24H27.1114L29.6114 6.64H30.9714L33.4714 14.24H33.5114L35.6714 6.64H37.2314L34.2714 16H32.7914L30.3114 8.32H30.2714L27.7914 16H26.3114L23.3514 6.64H24.9114ZM39.745 0.879999H41.065V8.14H41.105C41.2517 7.88667 41.4383 7.65333 41.665 7.44C41.8917 7.22667 42.145 7.04667 42.425 6.9C42.705 6.74 42.9983 6.62 43.305 6.54C43.625 6.44667 43.9383 6.4 44.245 6.4C45.445 6.4 46.3317 6.72 46.905 7.36C47.4783 7.98667 47.765 8.88667 47.765 10.06V16H46.445V10.82C46.445 9.78 46.265 8.98667 45.905 8.44C45.545 7.88 44.8783 7.6 43.905 7.6C43.8383 7.6 43.6517 7.62667 43.345 7.68C43.0383 7.73333 42.7117 7.88 42.365 8.12C42.0317 8.36 41.7317 8.72 41.465 9.2C41.1983 9.68 41.065 10.3467 41.065 11.2V16H39.745V0.879999ZM56.9783 11.34C56.645 11.34 56.225 11.36 55.7183 11.4C55.225 11.4267 54.745 11.5067 54.2783 11.64C53.825 11.76 53.4316 11.9533 53.0983 12.22C52.7783 12.4867 52.6183 12.8533 52.6183 13.32C52.6183 13.6267 52.6783 13.8933 52.7983 14.12C52.9316 14.3333 53.105 14.5133 53.3183 14.66C53.5316 14.7933 53.765 14.8933 54.0183 14.96C54.285 15.0133 54.5516 15.04 54.8183 15.04C55.2983 15.04 55.7116 14.96 56.0583 14.8C56.4183 14.64 56.7183 14.4267 56.9583 14.16C57.1983 13.88 57.3716 13.56 57.4783 13.2C57.5983 12.8267 57.6583 12.4333 57.6583 12.02V11.34H56.9783ZM57.6583 10.26V10.02C57.6583 8.40667 56.8583 7.6 55.2583 7.6C54.165 7.6 53.2116 7.96667 52.3983 8.7L51.5983 7.76C52.4783 6.85333 53.7983 6.4 55.5583 6.4C56.0116 6.4 56.445 6.46667 56.8583 6.6C57.285 6.73333 57.6516 6.94 57.9583 7.22C58.265 7.48667 58.5116 7.82667 58.6983 8.24C58.885 8.65333 58.9783 9.14667 58.9783 9.72V13.9C58.9783 14.26 58.9916 14.64 59.0183 15.04C59.0583 15.4267 59.0983 15.7467 59.1383 16H57.8583C57.8183 15.7733 57.785 15.5267 57.7583 15.26C57.745 14.9933 57.7383 14.7333 57.7383 14.48H57.6983C57.3116 15.1067 56.8516 15.56 56.3183 15.84C55.7983 16.1067 55.1583 16.24 54.3983 16.24C53.985 16.24 53.585 16.18 53.1983 16.06C52.8116 15.9533 52.465 15.7867 52.1583 15.56C51.865 15.32 51.625 15.0333 51.4383 14.7C51.265 14.3533 51.1783 13.9533 51.1783 13.5C51.1783 12.74 51.3716 12.1467 51.7583 11.72C52.1583 11.28 52.6516 10.9533 53.2383 10.74C53.8383 10.5267 54.4716 10.3933 55.1383 10.34C55.8183 10.2867 56.4383 10.26 56.9983 10.26H57.6583ZM67.6694 7.84H64.9694V13.36C64.9694 13.7067 65.0027 13.9933 65.0694 14.22C65.1361 14.4333 65.2294 14.6 65.3494 14.72C65.4694 14.84 65.6094 14.9267 65.7694 14.98C65.9427 15.02 66.1294 15.04 66.3294 15.04C66.5561 15.04 66.7894 15.0067 67.0294 14.94C67.2694 14.8733 67.4894 14.7867 67.6894 14.68L67.7494 15.9C67.2561 16.1267 66.6627 16.24 65.9694 16.24C65.7161 16.24 65.4494 16.2067 65.1694 16.14C64.9027 16.0733 64.6561 15.9467 64.4294 15.76C64.2027 15.5733 64.0161 15.32 63.8694 15C63.7227 14.68 63.6494 14.26 63.6494 13.74V7.84H61.6694V6.64H63.6494V4H64.9694V6.64H67.6694V7.84ZM77.0364 6.64L79.1964 14.24H79.2364L81.7364 6.64H83.0964L85.5964 14.24H85.6364L87.7964 6.64H89.3564L86.3964 16H84.9164L82.4364 8.32H82.3964L79.9164 16H78.4364L75.4764 6.64H77.0364ZM99.15 10.6C99.15 9.70667 98.8833 8.98667 98.35 8.44C97.8167 7.88 97.07 7.6 96.11 7.6C95.6833 7.6 95.27 7.68667 94.87 7.86C94.47 8.02 94.1167 8.24 93.81 8.52C93.5167 8.8 93.2767 9.12 93.09 9.48C92.9167 9.84 92.83 10.2133 92.83 10.6H99.15ZM92.79 11.68C92.83 12.1467 92.9433 12.5867 93.13 13C93.3167 13.4133 93.5633 13.7733 93.87 14.08C94.1767 14.3733 94.53 14.6067 94.93 14.78C95.33 14.9533 95.7633 15.04 96.23 15.04C96.9367 15.04 97.5433 14.88 98.05 14.56C98.57 14.2267 98.9633 13.8467 99.23 13.42L100.25 14.26C99.69 14.9667 99.07 15.4733 98.39 15.78C97.7233 16.0867 97.0033 16.24 96.23 16.24C95.5367 16.24 94.89 16.12 94.29 15.88C93.7033 15.6267 93.1967 15.28 92.77 14.84C92.3433 14.4 92.0033 13.88 91.75 13.28C91.51 12.68 91.39 12.0267 91.39 11.32C91.39 10.6133 91.51 9.96 91.75 9.36C91.99 8.76 92.3233 8.24 92.75 7.8C93.1767 7.36 93.6767 7.02 94.25 6.78C94.8233 6.52667 95.4433 6.4 96.11 6.4C96.8167 6.4 97.45 6.52667 98.01 6.78C98.57 7.03333 99.0367 7.37333 99.41 7.8C99.7967 8.21333 100.09 8.70667 100.29 9.28C100.49 9.84 100.59 10.44 100.59 11.08V11.68H92.79ZM118.69 11.32C118.69 10.8 118.603 10.3133 118.43 9.86C118.27 9.40667 118.036 9.01333 117.73 8.68C117.423 8.34667 117.05 8.08667 116.61 7.9C116.183 7.7 115.696 7.6 115.15 7.6C114.603 7.6 114.103 7.7 113.65 7.9C113.196 8.08667 112.803 8.34667 112.47 8.68C112.136 9.01333 111.876 9.40667 111.69 9.86C111.503 10.3133 111.41 10.8 111.41 11.32C111.41 11.84 111.503 12.3267 111.69 12.78C111.876 13.2333 112.136 13.6267 112.47 13.96C112.803 14.2933 113.196 14.56 113.65 14.76C114.103 14.9467 114.603 15.04 115.15 15.04C115.696 15.04 116.183 14.9467 116.61 14.76C117.05 14.56 117.423 14.2933 117.73 13.96C118.036 13.6267 118.27 13.2333 118.43 12.78C118.603 12.3267 118.69 11.84 118.69 11.32ZM110.15 0.879999H111.47V8.2H111.51C111.723 7.88 111.976 7.60667 112.27 7.38C112.563 7.15333 112.87 6.96667 113.19 6.82C113.51 6.67333 113.836 6.56667 114.17 6.5C114.516 6.43333 114.843 6.4 115.15 6.4C115.883 6.4 116.55 6.52667 117.15 6.78C117.763 7.02 118.29 7.36 118.73 7.8C119.17 8.24 119.51 8.76 119.75 9.36C120.003 9.96 120.13 10.6133 120.13 11.32C120.13 12.0267 120.003 12.68 119.75 13.28C119.51 13.88 119.17 14.4 118.73 14.84C118.29 15.28 117.763 15.6267 117.15 15.88C116.55 16.12 115.883 16.24 115.15 16.24C114.843 16.24 114.516 16.2067 114.17 16.14C113.836 16.0733 113.51 15.9667 113.19 15.82C112.87 15.6733 112.563 15.4867 112.27 15.26C111.976 15.0333 111.723 14.76 111.51 14.44H111.47V16H110.15V0.879999ZM130.456 10.6C130.456 9.70667 130.19 8.98667 129.656 8.44C129.123 7.88 128.376 7.6 127.416 7.6C126.99 7.6 126.576 7.68667 126.176 7.86C125.776 8.02 125.423 8.24 125.116 8.52C124.823 8.8 124.583 9.12 124.396 9.48C124.223 9.84 124.136 10.2133 124.136 10.6H130.456ZM124.096 11.68C124.136 12.1467 124.25 12.5867 124.436 13C124.623 13.4133 124.87 13.7733 125.176 14.08C125.483 14.3733 125.836 14.6067 126.236 14.78C126.636 14.9533 127.07 15.04 127.536 15.04C128.243 15.04 128.85 14.88 129.356 14.56C129.876 14.2267 130.27 13.8467 130.536 13.42L131.556 14.26C130.996 14.9667 130.376 15.4733 129.696 15.78C129.03 16.0867 128.31 16.24 127.536 16.24C126.843 16.24 126.196 16.12 125.596 15.88C125.01 15.6267 124.503 15.28 124.076 14.84C123.65 14.4 123.31 13.88 123.056 13.28C122.816 12.68 122.696 12.0267 122.696 11.32C122.696 10.6133 122.816 9.96 123.056 9.36C123.296 8.76 123.63 8.24 124.056 7.8C124.483 7.36 124.983 7.02 125.556 6.78C126.13 6.52667 126.75 6.4 127.416 6.4C128.123 6.4 128.756 6.52667 129.316 6.78C129.876 7.03333 130.343 7.37333 130.716 7.8C131.103 8.21333 131.396 8.70667 131.596 9.28C131.796 9.84 131.896 10.44 131.896 11.08V11.68H124.096ZM136.71 16H135.39V0.879999H136.71V16ZM142.614 3.04C142.614 3.32 142.514 3.55333 142.314 3.74C142.114 3.91333 141.894 4 141.654 4C141.414 4 141.194 3.91333 140.994 3.74C140.794 3.55333 140.694 3.32 140.694 3.04C140.694 2.76 140.794 2.53333 140.994 2.36C141.194 2.17333 141.414 2.08 141.654 2.08C141.894 2.08 142.114 2.17333 142.314 2.36C142.514 2.53333 142.614 2.76 142.614 3.04ZM142.314 16H140.994V6.64H142.314V16ZM153.579 10.6C153.579 9.70667 153.312 8.98667 152.779 8.44C152.246 7.88 151.499 7.6 150.539 7.6C150.112 7.6 149.699 7.68667 149.299 7.86C148.899 8.02 148.546 8.24 148.239 8.52C147.946 8.8 147.706 9.12 147.519 9.48C147.346 9.84 147.259 10.2133 147.259 10.6H153.579ZM147.219 11.68C147.259 12.1467 147.372 12.5867 147.559 13C147.746 13.4133 147.992 13.7733 148.299 14.08C148.606 14.3733 148.959 14.6067 149.359 14.78C149.759 14.9533 150.192 15.04 150.659 15.04C151.366 15.04 151.972 14.88 152.479 14.56C152.999 14.2267 153.392 13.8467 153.659 13.42L154.679 14.26C154.119 14.9667 153.499 15.4733 152.819 15.78C152.152 16.0867 151.432 16.24 150.659 16.24C149.966 16.24 149.319 16.12 148.719 15.88C148.132 15.6267 147.626 15.28 147.199 14.84C146.772 14.4 146.432 13.88 146.179 13.28C145.939 12.68 145.819 12.0267 145.819 11.32C145.819 10.6133 145.939 9.96 146.179 9.36C146.419 8.76 146.752 8.24 147.179 7.8C147.606 7.36 148.106 7.02 148.679 6.78C149.252 6.52667 149.872 6.4 150.539 6.4C151.246 6.4 151.879 6.52667 152.439 6.78C152.999 7.03333 153.466 7.37333 153.839 7.8C154.226 8.21333 154.519 8.70667 154.719 9.28C154.919 9.84 155.019 10.44 155.019 11.08V11.68H147.219ZM162.332 16H160.852L157.052 6.64H158.632L161.612 14.52H161.652L164.632 6.64H166.132L162.332 16ZM175.941 10.6C175.941 9.70667 175.674 8.98667 175.141 8.44C174.607 7.88 173.861 7.6 172.901 7.6C172.474 7.6 172.061 7.68667 171.661 7.86C171.261 8.02 170.907 8.24 170.601 8.52C170.307 8.8 170.067 9.12 169.881 9.48C169.707 9.84 169.621 10.2133 169.621 10.6H175.941ZM169.581 11.68C169.621 12.1467 169.734 12.5867 169.921 13C170.107 13.4133 170.354 13.7733 170.661 14.08C170.967 14.3733 171.321 14.6067 171.721 14.78C172.121 14.9533 172.554 15.04 173.021 15.04C173.727 15.04 174.334 14.88 174.841 14.56C175.361 14.2267 175.754 13.8467 176.021 13.42L177.041 14.26C176.481 14.9667 175.861 15.4733 175.181 15.78C174.514 16.0867 173.794 16.24 173.021 16.24C172.327 16.24 171.681 16.12 171.081 15.88C170.494 15.6267 169.987 15.28 169.561 14.84C169.134 14.4 168.794 13.88 168.541 13.28C168.301 12.68 168.181 12.0267 168.181 11.32C168.181 10.6133 168.301 9.96 168.541 9.36C168.781 8.76 169.114 8.24 169.541 7.8C169.967 7.36 170.467 7.02 171.041 6.78C171.614 6.52667 172.234 6.4 172.901 6.4C173.607 6.4 174.241 6.52667 174.801 6.78C175.361 7.03333 175.827 7.37333 176.201 7.8C176.587 8.21333 176.881 8.70667 177.081 9.28C177.281 9.84 177.381 10.44 177.381 11.08V11.68H169.581ZM188.86 3.04C188.86 3.32 188.76 3.55333 188.56 3.74C188.36 3.91333 188.14 4 187.9 4C187.66 4 187.44 3.91333 187.24 3.74C187.04 3.55333 186.94 3.32 186.94 3.04C186.94 2.76 187.04 2.53333 187.24 2.36C187.44 2.17333 187.66 2.08 187.9 2.08C188.14 2.08 188.36 2.17333 188.56 2.36C188.76 2.53333 188.86 2.76 188.86 3.04ZM188.56 16H187.24V6.64H188.56V16ZM193.805 6.64C193.832 6.89333 193.845 7.14667 193.845 7.4C193.858 7.64 193.865 7.88667 193.865 8.14H193.905C194.052 7.88667 194.238 7.65333 194.465 7.44C194.692 7.22667 194.945 7.04667 195.225 6.9C195.505 6.74 195.798 6.62 196.105 6.54C196.425 6.44667 196.738 6.4 197.045 6.4C198.245 6.4 199.132 6.72 199.705 7.36C200.278 7.98667 200.565 8.88667 200.565 10.06V16H199.245V10.82C199.245 9.78 199.065 8.98667 198.705 8.44C198.345 7.88 197.678 7.6 196.705 7.6C196.638 7.6 196.452 7.62667 196.145 7.68C195.838 7.73333 195.512 7.88 195.165 8.12C194.832 8.36 194.532 8.72 194.265 9.2C193.998 9.68 193.865 10.3467 193.865 11.2V16H192.545V8.7C192.545 8.44667 192.532 8.12667 192.505 7.74C192.492 7.35333 192.472 6.98667 192.445 6.64H193.805Z" fill="#767676"/>
</svg>
