<svg width="507" height="27" viewBox="0 0 507 27" fill="none" xmlns="http://www.w3.org/2000/svg">
<path d="M10.1925 26C9.95251 26 9.73651 25.916 9.54451 25.748C9.37651 25.556 9.29251 25.34 9.29251 25.1V17.36L0.940511 1.952C0.868511 1.736 0.832511 1.604 0.832511 1.556C0.832511 1.364 0.904511 1.196 1.04851 1.052C1.21651 0.883999 1.40851 0.799998 1.62451 0.799998H6.12451C6.60451 0.799998 7.02451 1.052 7.38451 1.556L12.5325 10.844L17.7165 1.556C18.0045 1.052 18.4245 0.799998 18.9765 0.799998H23.4765C23.6925 0.799998 23.8725 0.883999 24.0165 1.052C24.1605 1.196 24.2325 1.364 24.2325 1.556C24.2325 1.676 24.2085 1.808 24.1605 1.952L15.8085 17.36V25.1C15.8085 25.364 15.7125 25.58 15.5205 25.748C15.3525 25.916 15.1365 26 14.8725 26H10.1925ZM38.2523 26.36C34.8683 26.36 32.2043 25.532 30.2603 23.876C28.3163 22.22 27.2843 19.784 27.1643 16.568C27.1403 15.872 27.1283 14.84 27.1283 13.472C27.1283 12.08 27.1403 11.036 27.1643 10.34C27.2843 7.172 28.3283 4.736 30.2963 3.032C32.2883 1.304 34.9403 0.439999 38.2523 0.439999C41.5643 0.439999 44.2163 1.304 46.2083 3.032C48.2003 4.736 49.2443 7.172 49.3403 10.34C49.3883 11.732 49.4123 12.776 49.4123 13.472C49.4123 14.144 49.3883 15.176 49.3403 16.568C49.2203 19.784 48.1883 22.22 46.2443 23.876C44.3003 25.532 41.6363 26.36 38.2523 26.36ZM38.2523 21.176C39.5723 21.176 40.6163 20.78 41.3843 19.988C42.1763 19.196 42.5963 17.984 42.6443 16.352C42.6923 14.96 42.7163 13.976 42.7163 13.4C42.7163 12.776 42.6923 11.792 42.6443 10.448C42.5963 8.816 42.1763 7.604 41.3843 6.812C40.5923 6.02 39.5483 5.624 38.2523 5.624C36.9563 5.624 35.9123 6.02 35.1203 6.812C34.3523 7.604 33.9323 8.816 33.8603 10.448C33.8363 11.12 33.8243 12.104 33.8243 13.4C33.8243 14.672 33.8363 15.656 33.8603 16.352C33.9323 17.984 34.3523 19.196 35.1203 19.988C35.8883 20.78 36.9323 21.176 38.2523 21.176ZM65.9692 26.36C62.5852 26.36 59.9332 25.532 58.0132 23.876C56.1172 22.22 55.1692 19.724 55.1692 16.388V1.7C55.1692 1.436 55.2532 1.22 55.4212 1.052C55.6132 0.883999 55.8292 0.799998 56.0692 0.799998H60.7132C60.9772 0.799998 61.1932 0.883999 61.3612 1.052C61.5532 1.22 61.6492 1.436 61.6492 1.7V16.352C61.6492 17.912 62.0092 19.088 62.7292 19.88C63.4732 20.648 64.5412 21.032 65.9332 21.032C67.3012 21.032 68.3572 20.636 69.1012 19.844C69.8452 19.052 70.2172 17.888 70.2172 16.352V1.7C70.2172 1.436 70.3012 1.22 70.4692 1.052C70.6612 0.883999 70.8772 0.799998 71.1172 0.799998H75.7972C76.0612 0.799998 76.2772 0.883999 76.4452 1.052C76.6132 1.22 76.6972 1.436 76.6972 1.7V16.388C76.6972 19.724 75.7372 22.22 73.8172 23.876C71.9212 25.532 69.3052 26.36 65.9692 26.36ZM90.3811 26C90.1891 26 90.0091 25.928 89.8411 25.784C89.6971 25.616 89.6251 25.436 89.6251 25.244C89.6251 25.1 89.6371 24.992 89.6611 24.92L98.1211 1.808C98.1931 1.52 98.3491 1.28 98.5891 1.088C98.8291 0.895998 99.1411 0.799998 99.5251 0.799998H104.853C105.237 0.799998 105.549 0.895998 105.789 1.088C106.029 1.28 106.185 1.52 106.257 1.808L114.681 24.92L114.753 25.244C114.753 25.436 114.669 25.616 114.501 25.784C114.357 25.928 114.177 26 113.961 26H109.533C108.957 26 108.573 25.748 108.381 25.244L106.977 21.572H97.3651L95.9971 25.244C95.8051 25.748 95.4091 26 94.8091 26H90.3811ZM105.537 16.388L102.189 6.884L98.8411 16.388H105.537ZM120.291 26C120.051 26 119.835 25.916 119.643 25.748C119.475 25.556 119.391 25.34 119.391 25.1V1.7C119.391 1.436 119.475 1.22 119.643 1.052C119.835 0.883999 120.051 0.799998 120.291 0.799998H130.083C133.227 0.799998 135.675 1.52 137.427 2.96C139.203 4.376 140.091 6.392 140.091 9.008C140.091 10.688 139.695 12.116 138.903 13.292C138.111 14.468 137.019 15.368 135.627 15.992L140.559 24.848C140.631 24.992 140.667 25.124 140.667 25.244C140.667 25.436 140.583 25.616 140.415 25.784C140.271 25.928 140.103 26 139.911 26H135.123C134.427 26 133.935 25.676 133.647 25.028L129.543 17.108H125.871V25.1C125.871 25.364 125.775 25.58 125.583 25.748C125.415 25.916 125.199 26 124.935 26H120.291ZM130.011 11.996C131.115 11.996 131.955 11.732 132.531 11.204C133.107 10.652 133.395 9.896 133.395 8.936C133.395 7.976 133.107 7.22 132.531 6.668C131.979 6.092 131.139 5.804 130.011 5.804H125.871V11.996H130.011ZM146.981 26C146.741 26 146.525 25.916 146.333 25.748C146.165 25.556 146.081 25.34 146.081 25.1V1.7C146.081 1.436 146.165 1.22 146.333 1.052C146.525 0.883999 146.741 0.799998 146.981 0.799998H163.793C164.057 0.799998 164.273 0.883999 164.441 1.052C164.609 1.22 164.693 1.436 164.693 1.7V5.084C164.693 5.324 164.609 5.54 164.441 5.732C164.273 5.9 164.057 5.984 163.793 5.984H152.309V10.844H163.001C163.265 10.844 163.481 10.94 163.649 11.132C163.817 11.3 163.901 11.516 163.901 11.78V14.912C163.901 15.152 163.817 15.368 163.649 15.56C163.481 15.728 163.265 15.812 163.001 15.812H152.309V20.816H164.081C164.345 20.816 164.561 20.9 164.729 21.068C164.897 21.236 164.981 21.452 164.981 21.716V25.1C164.981 25.34 164.897 25.556 164.729 25.748C164.561 25.916 164.345 26 164.081 26H146.981ZM184.088 26C183.68 26 183.356 25.892 183.116 25.676C182.876 25.436 182.732 25.148 182.684 24.812L178.76 1.808C178.736 1.736 178.724 1.652 178.724 1.556C178.724 1.364 178.796 1.196 178.94 1.052C179.108 0.883999 179.288 0.799998 179.48 0.799998H183.944C184.616 0.799998 184.988 1.064 185.06 1.592L187.4 15.632L189.992 7.352C190.256 6.704 190.652 6.38 191.18 6.38H193.772C194.372 6.38 194.768 6.704 194.96 7.352L197.552 15.632L199.892 1.592C199.964 1.064 200.336 0.799998 201.008 0.799998H205.472C205.688 0.799998 205.868 0.883999 206.012 1.052C206.18 1.196 206.264 1.364 206.264 1.556L206.228 1.808L202.304 24.812C202.256 25.148 202.1 25.436 201.836 25.676C201.596 25.892 201.284 26 200.9 26H197.48C197.096 26 196.796 25.904 196.58 25.712C196.364 25.52 196.208 25.304 196.112 25.064L192.476 14.768L188.84 25.064C188.624 25.688 188.18 26 187.508 26H184.088ZM212.674 26C212.434 26 212.218 25.916 212.026 25.748C211.858 25.556 211.774 25.34 211.774 25.1V1.7C211.774 1.436 211.858 1.22 212.026 1.052C212.218 0.883999 212.434 0.799998 212.674 0.799998H229.486C229.75 0.799998 229.966 0.883999 230.134 1.052C230.302 1.22 230.386 1.436 230.386 1.7V5.084C230.386 5.324 230.302 5.54 230.134 5.732C229.966 5.9 229.75 5.984 229.486 5.984H218.002V10.844H228.694C228.958 10.844 229.174 10.94 229.342 11.132C229.51 11.3 229.594 11.516 229.594 11.78V14.912C229.594 15.152 229.51 15.368 229.342 15.56C229.174 15.728 228.958 15.812 228.694 15.812H218.002V20.816H229.774C230.038 20.816 230.254 20.9 230.422 21.068C230.59 21.236 230.674 21.452 230.674 21.716V25.1C230.674 25.34 230.59 25.556 230.422 25.748C230.254 25.916 230.038 26 229.774 26H212.674ZM237.466 26C237.226 26 237.01 25.916 236.818 25.748C236.65 25.556 236.566 25.34 236.566 25.1V1.7C236.566 1.436 236.65 1.22 236.818 1.052C237.01 0.883999 237.226 0.799998 237.466 0.799998H242.218C242.482 0.799998 242.698 0.883999 242.866 1.052C243.034 1.22 243.118 1.436 243.118 1.7V20.564H254.026C254.29 20.564 254.506 20.66 254.674 20.852C254.842 21.02 254.926 21.236 254.926 21.5V25.1C254.926 25.34 254.842 25.556 254.674 25.748C254.506 25.916 254.29 26 254.026 26H237.466ZM269.862 26.36C266.43 26.36 263.742 25.532 261.798 23.876C259.878 22.196 258.858 19.772 258.738 16.604C258.714 15.956 258.702 14.9 258.702 13.436C258.702 11.948 258.714 10.868 258.738 10.196C258.858 7.076 259.902 4.676 261.87 2.996C263.838 1.292 266.502 0.439999 269.862 0.439999C271.974 0.439999 273.87 0.799999 275.55 1.52C277.23 2.216 278.55 3.224 279.51 4.544C280.494 5.84 280.998 7.364 281.022 9.116V9.188C281.022 9.38 280.938 9.548 280.77 9.692C280.626 9.812 280.458 9.872 280.266 9.872H275.406C275.094 9.872 274.854 9.812 274.686 9.692C274.518 9.548 274.374 9.296 274.254 8.936C273.918 7.712 273.39 6.86 272.67 6.38C271.95 5.876 271.002 5.624 269.826 5.624C266.994 5.624 265.53 7.208 265.434 10.376C265.41 11.024 265.398 12.02 265.398 13.364C265.398 14.708 265.41 15.728 265.434 16.424C265.53 19.592 266.994 21.176 269.826 21.176C271.002 21.176 271.962 20.924 272.706 20.42C273.45 19.892 273.966 19.04 274.254 17.864C274.35 17.504 274.482 17.264 274.65 17.144C274.818 17 275.07 16.928 275.406 16.928H280.266C280.482 16.928 280.662 17 280.806 17.144C280.974 17.288 281.046 17.468 281.022 17.684C280.998 19.436 280.494 20.972 279.51 22.292C278.55 23.588 277.23 24.596 275.55 25.316C273.87 26.012 271.974 26.36 269.862 26.36ZM296.904 26.36C293.52 26.36 290.856 25.532 288.912 23.876C286.968 22.22 285.936 19.784 285.816 16.568C285.792 15.872 285.78 14.84 285.78 13.472C285.78 12.08 285.792 11.036 285.816 10.34C285.936 7.172 286.98 4.736 288.948 3.032C290.94 1.304 293.592 0.439999 296.904 0.439999C300.216 0.439999 302.868 1.304 304.86 3.032C306.852 4.736 307.896 7.172 307.992 10.34C308.04 11.732 308.064 12.776 308.064 13.472C308.064 14.144 308.04 15.176 307.992 16.568C307.872 19.784 306.84 22.22 304.896 23.876C302.952 25.532 300.288 26.36 296.904 26.36ZM296.904 21.176C298.224 21.176 299.268 20.78 300.036 19.988C300.828 19.196 301.248 17.984 301.296 16.352C301.344 14.96 301.368 13.976 301.368 13.4C301.368 12.776 301.344 11.792 301.296 10.448C301.248 8.816 300.828 7.604 300.036 6.812C299.244 6.02 298.2 5.624 296.904 5.624C295.608 5.624 294.564 6.02 293.772 6.812C293.004 7.604 292.584 8.816 292.512 10.448C292.488 11.12 292.476 12.104 292.476 13.4C292.476 14.672 292.488 15.656 292.512 16.352C292.584 17.984 293.004 19.196 293.772 19.988C294.54 20.78 295.584 21.176 296.904 21.176ZM314.937 26C314.697 26 314.481 25.916 314.289 25.748C314.121 25.556 314.037 25.34 314.037 25.1V1.7C314.037 1.436 314.121 1.22 314.289 1.052C314.481 0.883999 314.697 0.799998 314.937 0.799998H318.825C319.401 0.799998 319.821 1.064 320.085 1.592L326.421 12.932L332.757 1.592C333.021 1.064 333.441 0.799998 334.017 0.799998H337.869C338.133 0.799998 338.349 0.883999 338.517 1.052C338.709 1.22 338.805 1.436 338.805 1.7V25.1C338.805 25.364 338.709 25.58 338.517 25.748C338.349 25.916 338.133 26 337.869 26H333.585C333.321 26 333.093 25.916 332.901 25.748C332.733 25.58 332.649 25.364 332.649 25.1V11.6L328.617 19.124C328.305 19.676 327.885 19.952 327.357 19.952H325.485C325.173 19.952 324.921 19.88 324.729 19.736C324.537 19.592 324.369 19.388 324.225 19.124L320.157 11.6V25.1C320.157 25.34 320.073 25.556 319.905 25.748C319.737 25.916 319.521 26 319.257 26H314.937ZM346.549 26C346.309 26 346.093 25.916 345.901 25.748C345.733 25.556 345.649 25.34 345.649 25.1V1.7C345.649 1.436 345.733 1.22 345.901 1.052C346.093 0.883999 346.309 0.799998 346.549 0.799998H363.361C363.625 0.799998 363.841 0.883999 364.009 1.052C364.177 1.22 364.261 1.436 364.261 1.7V5.084C364.261 5.324 364.177 5.54 364.009 5.732C363.841 5.9 363.625 5.984 363.361 5.984H351.877V10.844H362.569C362.833 10.844 363.049 10.94 363.217 11.132C363.385 11.3 363.469 11.516 363.469 11.78V14.912C363.469 15.152 363.385 15.368 363.217 15.56C363.049 15.728 362.833 15.812 362.569 15.812H351.877V20.816H363.649C363.913 20.816 364.129 20.9 364.297 21.068C364.465 21.236 364.549 21.452 364.549 21.716V25.1C364.549 25.34 364.465 25.556 364.297 25.748C364.129 25.916 363.913 26 363.649 26H346.549ZM371.341 26C371.101 26 370.885 25.916 370.693 25.748C370.525 25.556 370.441 25.34 370.441 25.1V1.7C370.441 1.436 370.525 1.22 370.693 1.052C370.885 0.883999 371.101 0.799998 371.341 0.799998H380.701C384.229 0.799998 386.965 1.64 388.909 3.32C390.853 5 391.873 7.436 391.969 10.628C391.993 11.324 392.005 12.248 392.005 13.4C392.005 14.552 391.993 15.464 391.969 16.136C391.849 19.472 390.853 21.956 388.981 23.588C387.133 25.196 384.433 26 380.881 26H371.341ZM380.701 20.816C382.285 20.816 383.449 20.444 384.193 19.7C384.937 18.932 385.333 17.72 385.381 16.064C385.429 15.368 385.453 14.468 385.453 13.364C385.453 12.26 385.429 11.372 385.381 10.7C385.333 9.092 384.901 7.904 384.085 7.136C383.293 6.368 382.105 5.984 380.521 5.984H376.921V20.816H380.701ZM408.375 26C408.111 26 407.895 25.916 407.727 25.748C407.559 25.58 407.475 25.364 407.475 25.1V1.7C407.475 1.436 407.559 1.22 407.727 1.052C407.919 0.883999 408.135 0.799998 408.375 0.799998H413.019C413.283 0.799998 413.499 0.883999 413.667 1.052C413.859 1.22 413.955 1.436 413.955 1.7V10.376H422.811V1.7C422.811 1.436 422.895 1.22 423.063 1.052C423.231 0.883999 423.447 0.799998 423.711 0.799998H428.355C428.619 0.799998 428.835 0.883999 429.003 1.052C429.171 1.22 429.255 1.436 429.255 1.7V25.1C429.255 25.364 429.171 25.58 429.003 25.748C428.835 25.916 428.619 26 428.355 26H423.711C423.447 26 423.231 25.916 423.063 25.748C422.895 25.58 422.811 25.364 422.811 25.1V16.136H413.955V25.1C413.955 25.364 413.859 25.58 413.667 25.748C413.499 25.916 413.283 26 413.019 26H408.375ZM436.999 26C436.759 26 436.543 25.916 436.351 25.748C436.183 25.556 436.099 25.34 436.099 25.1V1.7C436.099 1.436 436.183 1.22 436.351 1.052C436.543 0.883999 436.759 0.799998 436.999 0.799998H453.811C454.075 0.799998 454.291 0.883999 454.459 1.052C454.627 1.22 454.711 1.436 454.711 1.7V5.084C454.711 5.324 454.627 5.54 454.459 5.732C454.291 5.9 454.075 5.984 453.811 5.984H442.327V10.844H453.019C453.283 10.844 453.499 10.94 453.667 11.132C453.835 11.3 453.919 11.516 453.919 11.78V14.912C453.919 15.152 453.835 15.368 453.667 15.56C453.499 15.728 453.283 15.812 453.019 15.812H442.327V20.816H454.099C454.363 20.816 454.579 20.9 454.747 21.068C454.915 21.236 454.999 21.452 454.999 21.716V25.1C454.999 25.34 454.915 25.556 454.747 25.748C454.579 25.916 454.363 26 454.099 26H436.999ZM461.791 26C461.551 26 461.335 25.916 461.143 25.748C460.975 25.556 460.891 25.34 460.891 25.1V1.7C460.891 1.436 460.975 1.22 461.143 1.052C461.335 0.883999 461.551 0.799998 461.791 0.799998H471.583C474.727 0.799998 477.175 1.52 478.927 2.96C480.703 4.376 481.591 6.392 481.591 9.008C481.591 10.688 481.195 12.116 480.403 13.292C479.611 14.468 478.519 15.368 477.127 15.992L482.059 24.848C482.131 24.992 482.167 25.124 482.167 25.244C482.167 25.436 482.083 25.616 481.915 25.784C481.771 25.928 481.603 26 481.411 26H476.623C475.927 26 475.435 25.676 475.147 25.028L471.043 17.108H467.371V25.1C467.371 25.364 467.275 25.58 467.083 25.748C466.915 25.916 466.699 26 466.435 26H461.791ZM471.511 11.996C472.615 11.996 473.455 11.732 474.031 11.204C474.607 10.652 474.895 9.896 474.895 8.936C474.895 7.976 474.607 7.22 474.031 6.668C473.479 6.092 472.639 5.804 471.511 5.804H467.371V11.996H471.511ZM488.482 26C488.242 26 488.026 25.916 487.834 25.748C487.666 25.556 487.582 25.34 487.582 25.1V1.7C487.582 1.436 487.666 1.22 487.834 1.052C488.026 0.883999 488.242 0.799998 488.482 0.799998H505.294C505.558 0.799998 505.774 0.883999 505.942 1.052C506.11 1.22 506.194 1.436 506.194 1.7V5.084C506.194 5.324 506.11 5.54 505.942 5.732C505.774 5.9 505.558 5.984 505.294 5.984H493.81V10.844H504.502C504.766 10.844 504.982 10.94 505.15 11.132C505.318 11.3 505.402 11.516 505.402 11.78V14.912C505.402 15.152 505.318 15.368 505.15 15.56C504.982 15.728 504.766 15.812 504.502 15.812H493.81V20.816H505.582C505.846 20.816 506.062 20.9 506.23 21.068C506.398 21.236 506.482 21.452 506.482 21.716V25.1C506.482 25.34 506.398 25.556 506.23 25.748C506.062 25.916 505.846 26 505.582 26H488.482Z" fill="#2E2C5F"/>
</svg>
