<svg xmlns="http://www.w3.org/2000/svg" xmlns:xlink="http://www.w3.org/1999/xlink" width="450" height="530">
  <defs>
    <linearGradient id="b" gradientUnits="userSpaceOnUse" x1="2.67" y1="0" x2="2.67" y2="360.14">
      <stop offset="0%" stop-color="#f3f3ff"/>
      <stop offset="100%" stop-color="#fff" stop-opacity="0"/>
    </linearGradient>
    <linearGradient id="d" gradientUnits="userSpaceOnUse" x1="100.67" y1="36.22" x2="100.67" y2="378.98">
      <stop offset="0%" stop-color="#f6f6ff"/>
      <stop offset="59.375%" stop-color="#fff"/>
    </linearGradient>
    <linearGradient id="f" gradientUnits="userSpaceOnUse" x1="295.31" y1="23.6" x2="295.31" y2="383.74">
      <stop offset="0%" stop-color="#f7f7ff"/>
      <stop offset="100%" stop-color="#fff"/>
    </linearGradient>
    <linearGradient id="h" gradientUnits="userSpaceOnUse" x1="421.88" y1="184.86" x2="421.88" y2="527.62">
      <stop offset="0%" stop-color="#f8f8fe"/>
      <stop offset="100%" stop-color="#fff"/>
    </linearGradient>
    <path d="M-23.38 27.59c-6.1 3.05-9.95 9.29-9.95 16.11v310.87c0 4.13 4.35 6.82 8.05 4.97 6.08-3.04 54.79-27.39 60.88-30.43 1.88-.94 3.07-2.87 3.07-4.97V5.57c0-4.14-4.35-6.82-8.05-4.98l-54 27z" id="a"/>
    <path d="M113.95 50.73c2.9 1.53 4.72 4.55 4.72 7.83v317.37c0 2.35-2.54 3.81-4.57 2.62-3-1.74-26.93-15.71-29.92-17.46-.94-.54-1.51-1.54-1.51-2.62V39.25c0-2.29 2.43-3.75 4.46-2.68 5.36 2.84 24.13 12.75 26.82 14.16z" id="c"/>
    <path d="M269.26 51.19c-6.1 3.05-9.95 9.29-9.95 16.11v310.87c0 4.13 4.35 6.82 8.05 4.97 6.09-3.04 54.79-27.38 60.88-30.43 1.88-.94 3.07-2.87 3.07-4.97V29.17c0-4.14-4.35-6.82-8.05-4.98l-54 27z" id="e"/>
    <path d="M435.16 199.37c2.9 1.53 4.72 4.55 4.72 7.83v317.38c0 2.35-2.54 3.81-4.57 2.62-3-1.75-26.93-15.72-29.92-17.46-.94-.54-1.51-1.54-1.51-2.62V187.9c0-2.29 2.43-3.75 4.46-2.68 5.36 2.83 24.13 12.74 26.82 14.15z" id="g"/>
  </defs>
  <use xlink:href="#a" fill="url(#b)"/>
  <use xlink:href="#a" fill-opacity="0" stroke="#000" stroke-opacity="0"/>
  <use xlink:href="#c" fill="url(#d)"/>
  <use xlink:href="#c" fill-opacity="0" stroke="#000" stroke-opacity="0"/>
  <g>
    <use xlink:href="#e" fill="url(#f)"/>
    <use xlink:href="#e" fill-opacity="0" stroke="#000" stroke-opacity="0"/>
  </g>
  <g>
    <use xlink:href="#g" fill="url(#h)"/>
    <use xlink:href="#g" fill-opacity="0" stroke="#000" stroke-opacity="0"/>
  </g>
</svg>