<svg width="24" height="24" fill="none" xmlns="http://www.w3.org/2000/svg">
  <path d="M21.9375.0625c.457 0 .8437.175781 1.1602.527344.3515.316406.5273.703126.5273 1.160156V22c0 .457-.1758.8438-.5273 1.1602-.3165.3515-.7032.5273-1.1602.5273h-20.25c-.45703 0-.861328-.1758-1.212891-.5273C.158203 22.8438 0 22.457 0 22V1.75C0 1.29297.158203.90625.474609.589844.826172.238281 1.23047.0625 1.6875.0625h20.25zm-14.81836 20.25h.05274V9.02734H3.63867V20.3125h3.48047zM3.95508 6.91797c.38672.38672.86133.58008 1.42383.58008.5625 0 1.03711-.19336 1.42382-.58008.42188-.42188.63282-.89649.63282-1.42383 0-.5625-.21094-1.03711-.63282-1.42383-.38671-.42187-.86132-.63281-1.42382-.63281-.5625 0-1.03711.21094-1.42383.63281-.38672.38672-.58008.86133-.58008 1.42383 0 .52734.19336 1.00195.58008 1.42383zM20.25 20.3125v-6.1699c0-.8438-.0527-1.5645-.1582-2.1621-.1055-.5977-.2988-1.1426-.5801-1.6348-.2812-.52734-.7207-.91406-1.3183-1.16015-.5625-.28125-1.2657-.42188-2.1094-.42188-.8086 0-1.5117.17578-2.1094.52735-.5625.35156-.9668.77348-1.2129 1.26558h-.0527V9.02734H9.33398V20.3125h3.53322v-5.5898c0-.8789.1406-1.5821.4219-2.1094.2812-.5274.8261-.791 1.6347-.791.4219 0 .7735.0879 1.0547.2636.2813.1758.457.4395.5274.7911.1054.3515.1757.6679.2109.9492.0352.2461.0527.58.0527 1.0019v5.4844H20.25z" fill="#AFAFAF"/>
</svg>