<svg width="52" height="44" viewBox="0 0 52 44" fill="none" xmlns="http://www.w3.org/2000/svg">
<path d="M34.0001 23.9998L41.0002 23.9998C41.8336 23.9998 42.5421 24.2914 43.1255 24.8748C43.7086 25.4582 44.0005 26.1665 44.0005 27.0001L44.0005 27.9996C44.0005 30.2081 43.2191 32.0934 41.6564 33.656C40.0938 35.2182 38.2082 35.9996 36 35.9996L34.0001 35.9996C33.4585 35.9996 32.9899 36.1976 32.5939 36.5933C32.1981 36.9892 32.0002 37.4578 32.0002 37.9994L32.0002 41.9998C32.0002 42.5414 32.1982 43.0104 32.5939 43.4063C32.9898 43.8017 33.4584 44 34.0001 44L36 44C38.1668 44 40.2341 43.5777 42.2031 42.7344C44.1719 41.8905 45.8748 40.7497 47.3125 39.312C48.7501 37.875 49.8905 36.172 50.7343 34.203C51.5781 32.2342 52 30.1664 52 27.9997L52 6.00023C52 4.33268 51.4169 2.91677 50.2503 1.74965C49.0835 0.583183 47.6665 -3.78851e-07 45.9999 -5.24547e-07L33.9993 -1.57367e-06C32.3329 -1.71935e-06 30.9163 0.583181 29.7494 1.74965C28.5829 2.91677 27.9995 4.33268 27.9995 6.00023L27.9995 17.9997C27.9995 19.6669 28.5829 21.0828 29.7502 22.2501C30.9165 23.4164 32.3336 23.9998 34.0001 23.9998Z" fill="#5DCEC6" fill-opacity="0.25"/>
<path d="M1.74865 22.25C2.915 23.4164 4.33168 23.9998 5.99857 23.9998L12.9986 23.9998C13.8315 23.9998 14.5407 24.2914 15.1231 24.8748C15.7067 25.4582 15.9981 26.1665 15.9981 27.0001L15.9981 27.9996C15.9981 30.2081 15.2167 32.0934 13.6547 33.656C12.0927 35.2182 10.2072 35.9996 7.99788 35.9996L5.99846 35.9996C5.45677 35.9996 4.98786 36.1976 4.59218 36.5933C4.19672 36.9892 3.99806 37.4578 3.99806 37.9994L3.99806 41.9998C3.99806 42.5414 4.19661 43.0104 4.59218 43.4063C4.98775 43.8017 5.45666 44 5.99846 44L7.99788 44C10.166 44 12.2328 43.5777 14.2023 42.7344C16.1708 41.8905 17.8731 40.7497 19.3108 39.312C20.7485 37.875 21.8895 36.172 22.733 34.203C23.5765 32.2342 23.999 30.1664 23.999 27.9997L23.999 6.00023C23.999 4.33268 23.4154 2.91677 22.2491 1.74965C21.0826 0.583181 19.6659 -2.28616e-06 17.9991 -2.43188e-06L5.99923 -3.48094e-06C4.33234 -3.62667e-06 2.91577 0.58318 1.74941 1.74965C0.582184 2.91676 -0.000225414 4.33268 -0.00022556 6.00022L-0.000226609 17.9997C-0.000337381 19.667 0.582184 21.0828 1.74865 22.25Z" fill="#5DCEC6" fill-opacity="0.25"/>
</svg>
