<svg width="52" height="44" viewBox="0 0 52 44" fill="none" xmlns="http://www.w3.org/2000/svg">
<path d="M17.9999 20.0002H10.9998C10.1664 20.0002 9.45791 19.7086 8.87452 19.1252C8.29145 18.5418 7.99953 17.8335 7.99953 16.9999V16.0004C7.99953 13.7919 8.78093 11.9066 10.3436 10.344C11.9062 8.78181 13.7918 8.00041 16 8.00041H17.9999C18.5415 8.00041 19.0101 7.8024 19.4061 7.40672C19.8019 7.01082 19.9998 6.54224 19.9998 6.00055V2.00018C19.9998 1.4586 19.8018 0.989585 19.4061 0.593685C19.0102 0.198333 18.5416 0 17.9999 0H16C13.8332 0 11.7659 0.422278 9.7969 1.26563C7.82812 2.10953 6.12522 3.25027 4.68753 4.68797C3.24994 6.125 2.10953 7.82802 1.26574 9.797C0.42195 11.7658 0 13.8336 0 16.0003V37.9998C0 39.6673 0.583068 41.0832 1.74975 42.2504C2.91654 43.4168 4.33355 44 6.00011 44H18.0007C19.6671 44 21.0837 43.4168 22.2506 42.2504C23.4171 41.0832 24.0005 39.6673 24.0005 37.9998V26.0003C24.0005 24.3331 23.4171 22.9172 22.2498 21.7499C21.0835 20.5836 19.6664 20.0002 17.9999 20.0002Z" fill="#5DCEC6" fill-opacity="0.25"/>
<path d="M50.2514 21.7499C49.085 20.5836 47.6683 20.0002 46.0014 20.0002H39.0014C38.1685 20.0002 37.4593 19.7086 36.8769 19.1252C36.2933 18.5418 36.0019 17.8335 36.0019 16.9999V16.0004C36.0019 13.7919 36.7833 11.9066 38.3453 10.344C39.9073 8.78181 41.7928 8.00041 44.0021 8.00041H46.0015C46.5432 8.00041 47.0121 7.8024 47.4078 7.40672C47.8033 7.01082 48.0019 6.54224 48.0019 6.00055V2.00018C48.0019 1.4586 47.8034 0.989585 47.4078 0.593685C47.0122 0.198333 46.5433 0 46.0015 0H44.0021C41.834 0 39.7672 0.422278 37.7977 1.26563C35.8292 2.10953 34.1269 3.25027 32.6892 4.68797C31.2515 6.125 30.1105 7.82802 29.267 9.797C28.4235 11.7658 28.001 13.8336 28.001 16.0003V37.9998C28.001 39.6673 28.5846 41.0832 29.7509 42.2504C30.9174 43.4168 32.3341 44 34.0009 44H46.0008C47.6677 44 49.0842 43.4168 50.2506 42.2504C51.4178 41.0832 52.0002 39.6673 52.0002 37.9998V26.0003C52.0003 24.333 51.4178 22.9172 50.2514 21.7499Z" fill="#5DCEC6" fill-opacity="0.25"/>
</svg>
