<svg width="62" height="54" viewBox="0 0 62 54" fill="none" xmlns="http://www.w3.org/2000/svg">
<path opacity="0.13" fill-rule="evenodd" clip-rule="evenodd" d="M50.0537 33.8497H11.7951C8.66686 33.8497 5.66673 32.607 3.45471 30.395C1.2427 28.183 0 25.1828 0 22.0546C0 18.9263 1.2427 15.9262 3.45471 13.7142C5.66673 11.5022 8.66686 10.2595 11.7951 10.2595H50.1293C53.2639 10.2614 56.2707 11.5023 58.4943 13.7117C60.7179 15.9212 61.9781 18.92 62 22.0546C61.9622 25.1973 60.6866 28.1983 58.4501 30.4065C56.2136 32.6147 53.1966 33.8519 50.0537 33.8497V33.8497Z" fill="#4A38F2"/>
<path d="M36.3308 52.6766H24.9893L38.0017 47.9585H23.2881L39.7559 43.1649" stroke="url(#paint0_linear)" stroke-width="2" stroke-linecap="round" stroke-linejoin="round"/>
<path d="M40.2241 41.8643C40.829 38.235 44.0046 34.3789 45.5168 32.7911C46.2047 32.0504 46.8129 31.2394 47.3315 30.3716C48.7911 27.8699 49.6551 25.0657 49.8565 22.1763C50.0579 19.2869 49.5913 16.3899 48.4928 13.7099C47.3942 11.0299 45.6934 8.63882 43.522 6.72201C41.3506 4.8052 38.7669 3.41413 35.9713 2.65661C33.1757 1.89909 30.2433 1.79548 27.4012 2.3538C24.5591 2.91211 21.8837 4.11737 19.5824 5.87614C17.2812 7.63492 15.4158 9.89998 14.1308 12.4958C12.8459 15.0916 12.176 17.9484 12.1729 20.8448C12.1638 24.1114 13.025 27.3214 14.668 30.1448C15.2115 31.1047 15.8718 31.9936 16.6339 32.7911C18.1461 34.4545 21.2461 38.235 21.851 41.7887C21.9097 42.1272 22.086 42.4341 22.3488 42.6554C22.6116 42.8767 22.944 42.9982 23.2876 42.9985H38.8632C39.1935 43.0259 39.5213 42.9223 39.7759 42.7101C40.0306 42.4979 40.1915 42.1941 40.2241 41.8643V41.8643Z" stroke="url(#paint1_linear)" stroke-width="3" stroke-miterlimit="10"/>
<path fill-rule="evenodd" clip-rule="evenodd" d="M32.0593 41.887V26.3341C32.0593 26.0333 31.9398 25.7448 31.7271 25.5321C31.5144 25.3194 31.226 25.2 30.9252 25.2C30.6244 25.2 30.3359 25.3194 30.1232 25.5321C29.9105 25.7448 29.791 26.0333 29.791 26.3341V41.887C29.791 42.1878 29.9105 42.4763 30.1232 42.689C30.3359 42.9017 30.6244 43.0212 30.9252 43.0212C31.226 43.0212 31.5144 42.9017 31.7271 42.689C31.9398 42.4763 32.0593 42.1878 32.0593 41.887Z" fill="url(#paint2_linear)" stroke="url(#paint3_linear)" stroke-width="1.5" stroke-miterlimit="10"/>
<path d="M26.8416 21.3437C26.8114 20.5005 27.0339 19.6675 27.4805 18.9516C27.927 18.2357 28.5773 17.6695 29.3479 17.3258C30.1184 16.982 30.9741 16.8763 31.8051 17.0222C32.6362 17.168 33.4047 17.5589 34.0121 18.1446C34.6195 18.7303 35.038 19.4841 35.214 20.3093C35.39 21.1345 35.3155 21.9934 34.9999 22.776C34.6844 23.5585 34.1422 24.2289 33.443 24.7012C32.7438 25.1735 31.9195 25.4261 31.0757 25.4267C30.5293 25.4377 29.9861 25.3407 29.4773 25.1413C28.9685 24.9419 28.5041 24.6439 28.1107 24.2646C27.7173 23.8852 27.4026 23.4319 27.1849 22.9307C26.9671 22.4295 26.8504 21.8902 26.8416 21.3437V21.3437Z" stroke="url(#paint4_linear)" stroke-width="3" stroke-linecap="round" stroke-linejoin="round"/>
<defs>
<linearGradient id="paint0_linear" x1="22.1917" y1="47.9207" x2="40.9505" y2="47.9207" gradientUnits="userSpaceOnUse">
<stop stop-color="#5949F3"/>
<stop offset="1" stop-color="#4A38F2"/>
</linearGradient>
<linearGradient id="paint1_linear" x1="547.929" y1="-75339" x2="2581.92" y2="-75339" gradientUnits="userSpaceOnUse">
<stop stop-color="#5949F3"/>
<stop offset="1" stop-color="#4A38F2"/>
</linearGradient>
<linearGradient id="paint2_linear" x1="119.275" y1="-32994.1" x2="126.262" y2="-32994.1" gradientUnits="userSpaceOnUse">
<stop stop-color="#5949F3"/>
<stop offset="1" stop-color="#4A38F2"/>
</linearGradient>
<linearGradient id="paint3_linear" x1="116.394" y1="-32994.1" x2="129.12" y2="-32994.1" gradientUnits="userSpaceOnUse">
<stop stop-color="#5949F3"/>
<stop offset="1" stop-color="#4A38F2"/>
</linearGradient>
<linearGradient id="paint4_linear" x1="375.733" y1="4547.8" x2="375.733" y2="3740.19" gradientUnits="userSpaceOnUse">
<stop stop-color="#5949F3"/>
<stop offset="1" stop-color="#4A38F2"/>
</linearGradient>
</defs>
</svg>
