<svg width="32" height="26" viewBox="0 0 32 26" fill="none" xmlns="http://www.w3.org/2000/svg">
<path d="M21.3846 4.43923H7.17309L8.34641 3.24774C9.07797 2.50484 9.07797 1.30106 8.34641 0.557174C7.61484 -0.185725 6.42942 -0.185725 5.69688 0.557174L1.32622 4.99554L1.32444 4.99636L0 6.3423L1.32428 7.68627C1.32428 7.68627 1.32509 7.68709 1.32605 7.6889L6.0085 12.4431C6.37468 12.8149 6.85421 13.0003 7.33278 13.0003C7.81311 13.0003 8.29167 12.8149 8.65802 12.4431C9.38959 11.7002 9.38959 10.4964 8.65802 9.75249L7.17309 8.24455H21.3846C25.1723 8.24455 28.2537 11.3747 28.2537 15.22C28.2537 19.0654 25.1713 22.1955 21.3846 22.1955H2.6513C1.61587 22.1955 0.777259 23.0471 0.777259 24.0977C0.777259 25.1482 1.61587 26 2.6513 26H21.3846C27.2386 26 32 21.1639 32 15.2202C32 9.27651 27.2384 4.43923 21.3846 4.43923Z" fill="#5F5F5F"/>
</svg>
