<svg width="28" height="28" viewBox="0 0 28 28" fill="none" xmlns="http://www.w3.org/2000/svg">
<path d="M27.2253 18.4249C27.2253 15.0465 25.2871 12.0313 22.3844 10.5647C22.2942 17.0424 17.0424 22.2942 10.5647 22.3843C12.0313 25.2871 15.0465 27.2253 18.4249 27.2253C20.009 27.2253 21.5494 26.8034 22.9028 26.0019L27.1869 27.1869L26.0019 22.9028C26.8034 21.5493 27.2253 20.0089 27.2253 18.4249Z" fill="#5F5F5F"/>
<path d="M20.7912 10.3956C20.7912 4.66335 16.1278 0 10.3956 0C4.66335 0 0 4.66335 0 10.3956C0 12.2638 0.497264 14.0827 1.44152 15.6796L0.0382191 20.7528L5.1116 19.3497C6.70849 20.2939 8.52743 20.7912 10.3956 20.7912C16.1278 20.7912 20.7912 16.1278 20.7912 10.3956ZM8.80036 7.97616H7.20513C7.20513 6.21684 8.63627 4.7857 10.3956 4.7857C12.1549 4.7857 13.5861 6.21684 13.5861 7.97616C13.5861 8.86912 13.208 9.72739 12.5485 10.3306L11.1932 11.571V12.815H9.59798V10.8686L11.4715 9.15368C11.8064 8.84731 11.9908 8.42918 11.9908 7.97616C11.9908 7.0965 11.2753 6.38093 10.3956 6.38093C9.51593 6.38093 8.80036 7.0965 8.80036 7.97616ZM9.59798 14.4103H11.1932V16.0055H9.59798V14.4103Z" fill="#5F5F5F"/>
</svg>
