<?xml version="1.0" encoding="utf-8"?>
<!-- Generator: Adobe Illustrator 23.0.1, SVG Export Plug-In . SVG Version: 6.00 Build 0)  -->
<svg className="post-landing-projects__backdrop--greenWaves" preserveAspectRatio="none" version="1.1" id="Layer_1" xmlns="http://www.w3.org/2000/svg" xmlns:xlink="http://www.w3.org/1999/xlink" x="0px" y="0px"
	 viewBox="0 0 1149 429" style="enable-background:new 0 0 1149 429;" xml:space="preserve">
<style type="text/css">
	.st0{fill:url(#SVGID_1_);fill-opacity:0.7;}
</style>
<linearGradient id="SVGID_1_" gradientUnits="userSpaceOnUse" x1="575.3354" y1="450.823" x2="571.5109" y2="1302.6656" gradientTransform="matrix(1 0 0 1 0 -362)">
	<stop  offset="0" style="stop-color:#B7F7F3"/>
	<stop  offset="0.349" style="stop-color:#FFFFFF"/>
</linearGradient>
<path class="st0" d="M0,122.9C85.1,95.6,170.1,68.3,255.2,41c17-5.8,40.3-12,68.5-14c28.1-2,51.9,0.7,69.5,4
	C456.1,51,519,70.9,581.9,90.9c38.2,15.3,83.4,15.3,121.7,0.1l103.3-41.2c41.2-13.3,72.7-11.7,93.8-7.8c16.8,3.1,49.2,18.8,113.2,50
	c34.5,16.8,54.3,26.9,85,30.9c20.9,2.7,38.4,1.5,50.1,0c0,99,0,205,0,304L0,429V122.9z"/>
</svg>
