<svg width="37" height="11" fill="none" xmlns="http://www.w3.org/2000/svg"><path d="M.63 2.174a.574.574 0 0 1-.404-.156.565.565 0 0 1-.169-.416c0-.156.057-.286.17-.39a.55.55 0 0 1 .402-.169h5.694a.55.55 0 0 1 .403.169.509.509 0 0 1 .17.39.565.565 0 0 1-.17.416.574.574 0 0 1-.403.156H4.087v7.28a.602.602 0 0 1-.61.611.581.581 0 0 1-.43-.169.626.626 0 0 1-.169-.442v-7.28H.63zm9.627 3.991v2.704h3.745a.55.55 0 0 1 .402.169.524.524 0 0 1 .17.403.55.55 0 0 1-.17.403.574.574 0 0 1-.402.156H9.659a.587.587 0 0 1-.429-.182.602.602 0 0 1-.182-.442V1.667c0-.173.061-.32.182-.442a.587.587 0 0 1 .43-.182h4.185a.55.55 0 0 1 .403.169.509.509 0 0 1 .17.39.566.566 0 0 1-.17.416.574.574 0 0 1-.402.156h-3.588v2.86h3.094a.55.55 0 0 1 .402.169.524.524 0 0 1 .17.403.55.55 0 0 1-.17.403.574.574 0 0 1-.402.156h-3.095zm11.15.468l-1.482-4.199-1.482 4.199h2.964zm2.275 2.6c.07.165.07.32 0 .468a.595.595 0 0 1-.338.325.599.599 0 0 1-.78-.351l-.74-1.95h-3.797l-.754 1.95a.599.599 0 0 1-.78.351.647.647 0 0 1-.35-.325.588.588 0 0 1 .012-.468l2.912-7.67c.078-.182.182-.325.312-.429.13-.104.303-.156.52-.156h.065c.2 0 .364.052.494.156a.938.938 0 0 1 .312.429l2.912 7.67zm7.853-.481a1.8 1.8 0 0 1-.247.364c-.095.113-.234.169-.416.169a.555.555 0 0 1-.429-.169 2.148 2.148 0 0 1-.234-.364l-2.69-5.486-.755 6.253a.616.616 0 0 1-.195.403.604.604 0 0 1-.403.143.608.608 0 0 1-.429-.156.574.574 0 0 1-.156-.403v-.078l.962-7.865a.692.692 0 0 1 .182-.403.532.532 0 0 1 .403-.182h.13c.13 0 .243.03.338.091a.456.456 0 0 1 .221.221l3.042 6.331 3.042-6.331a.468.468 0 0 1 .208-.221.71.71 0 0 1 .364-.091h.13c.156 0 .286.06.39.182a.657.657 0 0 1 .195.403l.962 7.865v.078a.55.55 0 0 1-.169.403.562.562 0 0 1-.416.156.622.622 0 0 1-.416-.143.646.646 0 0 1-.182-.403L34.2 3.266l-2.665 5.486z" fill="#373737"/></svg>