<svg width="40" height="11" fill="none" xmlns="http://www.w3.org/2000/svg"><path d="M5.576 6.633L4.094 2.434 2.612 6.633h2.964zm2.275 2.6c.07.165.07.32 0 .468a.595.595 0 0 1-.338.325.599.599 0 0 1-.78-.351l-.741-1.95H2.196l-.754 1.95a.599.599 0 0 1-.78.351.648.648 0 0 1-.351-.325.588.588 0 0 1 .013-.468l2.912-7.67c.078-.182.182-.325.312-.429.13-.104.303-.156.52-.156h.065c.2 0 .364.052.494.156a.938.938 0 0 1 .312.429l2.912 7.67zm3.46-7.059v3.341h2.274c.269 0 .498-.048.69-.143.198-.095.359-.221.48-.377.13-.156.221-.334.273-.533a2.086 2.086 0 0 0 0-1.222 1.456 1.456 0 0 0-.26-.533 1.223 1.223 0 0 0-.455-.377 1.317 1.317 0 0 0-.663-.156h-2.34zm-.014 7.28a.602.602 0 0 1-.61.611.581.581 0 0 1-.43-.169.626.626 0 0 1-.169-.442V1.563c0-.147.048-.269.143-.364a.499.499 0 0 1 .364-.156h3.068c.477 0 .88.082 1.21.247.337.156.615.368.831.637.217.26.373.559.468.897a3.474 3.474 0 0 1 0 2.067c-.095.33-.251.624-.468.884-.216.26-.494.472-.832.637-.33.156-.732.234-1.209.234h-2.366v2.808zm8.664-7.28v3.341h2.275c.269 0 .498-.048.69-.143.199-.095.359-.221.48-.377.13-.156.221-.334.273-.533a2.086 2.086 0 0 0 0-1.222 1.457 1.457 0 0 0-.26-.533 1.224 1.224 0 0 0-.455-.377 1.317 1.317 0 0 0-.663-.156h-2.34zm-.013 7.28a.602.602 0 0 1-.61.611.581.581 0 0 1-.43-.169.626.626 0 0 1-.169-.442V1.563c0-.147.048-.269.143-.364a.499.499 0 0 1 .364-.156h3.068c.477 0 .88.082 1.21.247.337.156.614.368.831.637.217.26.373.559.468.897a3.474 3.474 0 0 1 0 2.067c-.095.33-.251.624-.468.884-.216.26-.494.472-.832.637-.33.156-.732.234-1.209.234h-2.366v2.808zm8.04.546a.587.587 0 0 1-.429-.182.602.602 0 0 1-.182-.442V1.589c0-.173.057-.316.17-.429a.56.56 0 0 1 .428-.182.56.56 0 0 1 .43.182.56.56 0 0 1 .181.429v7.28h3.146a.55.55 0 0 1 .403.169.509.509 0 0 1 .17.39.565.565 0 0 1-.17.416.574.574 0 0 1-.403.156h-3.744zm4.76-8.086a.636.636 0 0 1-.117-.442.551.551 0 0 1 .26-.39.508.508 0 0 1 .429-.091.562.562 0 0 1 .39.247l2.431 3.432 2.457-3.432a.555.555 0 0 1 .377-.247.53.53 0 0 1 .442.091.551.551 0 0 1 .26.39.608.608 0 0 1-.104.455l-2.808 3.952v3.575a.602.602 0 0 1-.624.611.626.626 0 0 1-.442-.169.626.626 0 0 1-.169-.442V5.879l-2.782-3.965z" fill="#373737"/></svg>