<svg width="52" height="14" fill="none" xmlns="http://www.w3.org/2000/svg"><path d="M.63 12.977a.537.537 0 0 1-.363-.221.545.545 0 0 1 .104-.78.62.62 0 0 1 .416-.091c.095.017.177.026.247.026h.143c.286 0 .524-.052.715-.156.199-.095.36-.225.48-.39a1.57 1.57 0 0 0 .26-.572c.061-.217.092-.442.092-.676V1.589c0-.173.056-.316.169-.429a.56.56 0 0 1 .429-.182.56.56 0 0 1 .429.182.56.56 0 0 1 .182.429v8.528c0 .39-.052.763-.156 1.118a2.386 2.386 0 0 1-.468.923 2.229 2.229 0 0 1-.858.637c-.347.156-.772.234-1.274.234a4.09 4.09 0 0 1-.546-.052zm5.908-7.436c0-.633.117-1.226.35-1.781.235-.563.551-1.053.95-1.469a4.59 4.59 0 0 1 1.43-.988 4.426 4.426 0 0 1 1.794-.364c.641 0 1.24.121 1.794.364a4.55 4.55 0 0 1 1.443.988c.407.416.728.906.962 1.469.234.555.35 1.148.35 1.781a4.63 4.63 0 0 1-.35 1.794 4.55 4.55 0 0 1-2.405 2.444 4.568 4.568 0 0 1-1.794.351c-.642 0-1.24-.117-1.794-.351a4.59 4.59 0 0 1-1.43-.988 4.752 4.752 0 0 1-.95-1.456 4.63 4.63 0 0 1-.35-1.794zm1.209 0c0 .477.082.923.247 1.339.173.416.407.78.702 1.092.303.303.654.546 1.053.728.407.173.845.26 1.313.26.468 0 .905-.087 1.313-.26a3.283 3.283 0 0 0 1.755-1.82c.173-.416.26-.862.26-1.339s-.087-.923-.26-1.339a3.283 3.283 0 0 0-.702-1.092 3.1 3.1 0 0 0-1.053-.728 3.182 3.182 0 0 0-1.313-.273c-.468 0-.906.091-1.313.273-.399.173-.75.416-1.053.728a3.578 3.578 0 0 0-.702 1.092 3.605 3.605 0 0 0-.247 1.339zm11.672 3.913a.602.602 0 0 1-.61.611.58.58 0 0 1-.43-.169.626.626 0 0 1-.169-.442V1.589c0-.173.057-.316.17-.429a.56.56 0 0 1 .428-.182.56.56 0 0 1 .43.182.56.56 0 0 1 .181.429v7.865zm4.348-6.201v6.201c0 .173-.057.32-.17.442a.58.58 0 0 1-.428.169.626.626 0 0 1-.442-.169.626.626 0 0 1-.17-.442V1.576c0-.165.057-.303.17-.416a.587.587 0 0 1 .428-.182h.17c.138 0 .255.026.35.078.104.052.191.143.26.273l3.862 6.409V1.589c0-.173.056-.316.168-.429a.56.56 0 0 1 .43-.182.56.56 0 0 1 .428.182.56.56 0 0 1 .183.429v7.904a.55.55 0 0 1-.17.403.55.55 0 0 1-.402.169h-.17a.696.696 0 0 1-.337-.078.654.654 0 0 1-.247-.26l-3.913-6.474zm17.778-1.664c0-.173.056-.316.169-.429a.56.56 0 0 1 .429-.182.56.56 0 0 1 .429.182.56.56 0 0 1 .182.429v5.33c0 .485-.091.927-.273 1.326a2.947 2.947 0 0 1-.715 1.014 3.203 3.203 0 0 1-1.04.65c-.39.147-.806.221-1.248.221-.442 0-.862-.074-1.261-.221a3.357 3.357 0 0 1-1.053-.65 3.033 3.033 0 0 1-.702-1.014 3.29 3.29 0 0 1-.26-1.326v-5.33c0-.173.056-.316.169-.429A.56.56 0 0 1 36.8.978a.56.56 0 0 1 .429.182.56.56 0 0 1 .182.429v5.33c0 .312.056.594.169.845.113.251.26.468.442.65.19.173.412.308.663.403.251.095.516.143.793.143s.542-.048.793-.143c.251-.095.468-.23.65-.403.19-.182.342-.399.455-.65.113-.251.169-.533.169-.845v-5.33zm4.964 6.162c.043.165.121.325.234.481.112.147.247.277.403.39.164.113.35.204.559.273.216.07.446.104.689.104.294 0 .554-.039.78-.117.225-.087.411-.195.559-.325.156-.139.273-.295.35-.468.079-.173.118-.351.118-.533a1.21 1.21 0 0 0-.13-.572 1.25 1.25 0 0 0-.351-.416 1.573 1.573 0 0 0-.481-.286 4.267 4.267 0 0 0-.56-.195l-1.156-.286c-.477-.113-.858-.264-1.144-.455a2.664 2.664 0 0 1-.663-.598 1.846 1.846 0 0 1-.312-.663 3.324 3.324 0 0 1-.065-.624c0-.373.078-.715.234-1.027.164-.312.377-.576.637-.793.268-.225.576-.399.923-.52a3.396 3.396 0 0 1 1.105-.182c.72 0 1.321.173 1.807.52.485.338.81.797.975 1.378.026.095.039.195.039.299a.622.622 0 0 1-.13.39c-.087.104-.243.156-.468.156a.801.801 0 0 1-.338-.078c-.104-.06-.178-.173-.221-.338-.113-.416-.317-.715-.611-.897-.295-.182-.65-.273-1.066-.273-.217 0-.43.035-.637.104-.2.06-.377.152-.533.273a1.331 1.331 0 0 0-.377.416c-.087.165-.13.351-.13.559 0 .095.013.204.039.325a1 1 0 0 0 .169.351c.095.113.225.221.39.325.164.095.39.178.676.247l1.17.286c.771.19 1.365.494 1.78.91.425.416.638.932.638 1.547 0 .364-.07.71-.208 1.04-.13.32-.325.607-.585.858a2.796 2.796 0 0 1-.95.585 3.636 3.636 0 0 1-1.273.208c-.789 0-1.439-.186-1.95-.559a2.824 2.824 0 0 1-1.04-1.43.9.9 0 0 1-.04-.26c0-.182.061-.32.183-.416a.655.655 0 0 1 .416-.143c.13 0 .242.043.338.13a.668.668 0 0 1 .208.299z" fill="#373737"/></svg>