<svg width="178" height="23" viewBox="0 0 178 23" fill="none" xmlns="http://www.w3.org/2000/svg">
<path d="M28.1137 14.0378C29.0067 12.1661 29.81 10.4972 30.6054 8.82828C31.7752 6.34831 32.9996 3.88004 34.1148 1.37278C34.5125 0.507134 34.9688 0.0587129 35.967 0.179592C36.6931 0.251733 37.4245 0.251733 38.1506 0.179592C39.0162 0.117203 39.3204 0.448645 39.3204 1.32209C39.2853 5.61134 39.3204 9.8616 39.3204 14.1314C39.3204 16.5021 39.2814 18.8768 39.3204 21.2476C39.3399 22.1795 39.0084 22.5071 38.1077 22.4174C37.5718 22.3745 37.0332 22.3745 36.4973 22.4174C35.7486 22.4642 35.5069 22.1328 35.5108 21.4036C35.5341 17.2274 35.5108 13.0551 35.5108 8.87897V8.21609L35.3704 8.1537C34.6958 9.43657 34.0134 10.7194 33.3466 12.0062C31.7687 15.0633 30.1895 18.1217 28.609 21.1813C28.4569 21.4465 28.4101 21.8364 27.9929 21.813C27.5756 21.7896 27.5055 21.4582 27.369 21.1852L19.0556 4.67941C18.459 3.50961 17.8858 2.30862 17.2619 1.12713C16.9266 0.483739 17.0904 0.183491 17.8351 0.195189C18.6891 0.195189 19.5469 0.24588 20.397 0.195189C21.1535 0.140599 21.5317 0.460343 21.8436 1.11933C23.7465 5.10833 25.6845 9.08174 27.6107 13.0629C27.7355 13.3047 27.8681 13.5543 28.1137 14.0378Z" fill="#231E1F"/>
<path d="M5.15435 0H8.85871C12.3252 0 15.4174 2.44097 16.1075 5.69301C16.4901 7.3877 16.2685 9.1628 15.481 10.7114C14.6935 12.26 13.3897 13.4848 11.7949 14.174C11.093 14.4665 11.0735 14.6926 11.405 15.3009C12.4851 17.3715 13.4833 19.4849 14.5634 21.5398C14.9026 22.1949 14.735 22.3626 14.0643 22.3977C10.9448 22.5732 10.9448 22.581 9.56838 19.8085L5.87183 12.4778C5.38441 11.4991 5.40781 11.464 6.53471 11.4562C7.38866 11.4562 8.24261 11.4796 9.09656 11.4562C11.4362 11.3704 12.9959 9.7171 12.9959 7.34242C12.9959 4.96773 11.3192 3.26373 9.02638 3.23254C6.73358 3.20134 4.53046 3.18964 2.28446 3.23254C1.9608 3.26938 1.63409 3.19739 1.35589 3.02793C1.0777 2.85847 0.863857 2.60119 0.748124 2.2967C-0.398275 0 -0.433369 0 2.11678 0H5.15435Z" fill="#231E1F"/>
<path d="M123.635 12.6843C124.641 10.6138 125.534 8.78498 126.435 6.93281C126.79 6.20363 128.739 5.68892 129.395 6.15294C129.644 6.32451 129.609 6.59357 129.609 6.83922C129.609 9.90799 129.609 12.9729 129.609 16.0377C129.609 16.7786 129.219 16.8176 128.638 16.8176C128.057 16.8176 127.772 16.6538 127.78 16.0065C127.804 13.6396 127.78 11.2727 127.78 8.89416C127.39 8.87077 127.39 9.19831 127.289 9.38938C126.345 11.2455 125.417 13.1132 124.489 14.9771C124.302 15.367 124.127 15.7297 123.62 15.757C123.113 15.7843 122.945 15.367 122.762 14.9771C121.728 12.9261 120.707 10.8711 119.471 8.84347V10.0133C119.471 12.037 119.471 14.0569 119.471 16.0806C119.471 16.7864 119.081 16.8332 118.551 16.8293C118.02 16.8254 117.583 16.8293 117.583 16.1196C117.583 12.9612 117.583 9.80141 117.583 6.64036C117.583 6.16854 117.794 5.97747 118.258 5.92288C120.079 5.71622 120.258 5.7981 121.081 7.48261C121.904 9.16712 122.727 10.8126 123.635 12.6843Z" fill="#231E1F"/>
<path d="M58.3449 11.581C59.0897 11.312 59.7331 11.5031 60.3531 11.3939C61.5463 11.1872 62.0103 10.614 61.983 9.36233C61.9596 8.32511 61.4761 7.8338 60.2712 7.77141C59.2963 7.71682 58.3215 7.77141 57.3311 7.75191C56.7384 7.73241 56.7735 8.10285 56.7735 8.49668C56.7735 10.9039 56.7735 13.3084 56.7735 15.7104C56.7735 16.7281 56.5512 16.9036 55.5413 16.8295C55.0656 16.7905 54.8823 16.5995 54.8823 16.1198C54.8823 12.9562 54.8823 9.79255 54.8823 6.62891C54.8823 6.23898 54.9681 5.91923 55.4321 5.93093C57.296 5.97382 59.1716 5.72426 61.0198 6.0869C62.681 6.41054 63.5271 7.2567 63.7494 8.69945C64.0301 10.4112 63.4647 11.7136 61.9869 12.5442C61.5463 12.7937 61.5541 12.9341 61.8231 13.2967C62.4899 14.1819 63.1138 15.0982 63.7728 15.999C64.0808 16.4279 64.0691 16.6502 63.4491 16.693C62.5172 16.7515 61.788 16.619 61.2265 15.6909C60.3804 14.2911 59.3548 13.0004 58.3449 11.581Z" fill="#231E1F"/>
<path d="M177.999 11.2847C177.999 12.8054 177.972 14.3222 177.999 15.8391C177.999 16.5253 177.742 16.7008 177.106 16.6969C176.471 16.693 176.065 16.6033 176.104 15.8352C176.147 14.95 176.104 14.061 176.104 13.1797C176.104 12.6572 175.96 12.4427 175.41 12.4544C174.143 12.4856 172.875 12.4817 171.612 12.4544C171.07 12.4544 170.891 12.6455 170.906 13.1719C170.937 14.1195 170.906 15.067 170.906 16.0184C170.926 16.7437 170.489 16.8178 169.92 16.8295C169.35 16.8412 168.984 16.7047 168.988 15.995C169.016 12.8938 169.016 9.79511 168.988 6.69905C168.988 6.03617 169.308 5.91919 169.869 5.91919C170.431 5.91919 170.91 5.91919 170.898 6.69905C170.898 7.77527 170.898 8.85148 170.898 9.92379C170.898 10.4112 170.976 10.7037 171.565 10.6725C172.864 10.6374 174.162 10.6452 175.465 10.6725C175.979 10.6725 176.116 10.4658 176.104 9.99398C176.081 8.95286 176.127 7.90784 176.104 6.87452C176.073 6.06736 176.494 5.94648 177.169 5.93479C177.843 5.92309 178.011 6.24283 177.999 6.85893C177.98 8.31337 177.999 9.79901 177.999 11.2847Z" fill="#231E1F"/>
<path d="M106.513 11.3705C106.513 9.88873 106.54 8.40309 106.513 6.91745C106.513 6.20387 106.7 5.88803 107.472 5.90363C109.367 5.94522 111.264 5.94522 113.162 5.90363C113.941 5.90363 114.019 6.29356 114.019 6.90575C114.019 7.51794 113.906 7.85718 113.193 7.83769C111.867 7.79869 110.537 7.83769 109.208 7.81819C108.658 7.81819 108.428 7.95857 108.428 8.55906C108.373 10.6413 108.346 10.6413 110.416 10.6413C111.239 10.6413 112.062 10.6413 112.885 10.6413C113.501 10.6413 113.598 10.9961 113.598 11.5069C113.598 12.0178 113.462 12.3492 112.853 12.3375C111.617 12.318 110.385 12.3375 109.153 12.3375C108.627 12.3375 108.447 12.4935 108.428 13.0355C108.346 15.1801 108.326 15.1762 110.455 15.1762C111.434 15.1762 112.405 15.2152 113.395 15.1762C114.105 15.1411 114.238 15.4609 114.23 16.0769C114.222 16.693 114.105 16.9426 113.45 16.9309C111.395 16.8997 109.34 16.9036 107.285 16.9309C106.681 16.9309 106.529 16.6891 106.533 16.151C106.529 14.5328 106.513 12.9536 106.513 11.3705Z" fill="#231E1F"/>
<path d="M161.712 5.6109C162.997 5.57971 164.248 6.0272 165.221 6.86648C165.576 7.15893 165.9 7.45528 165.432 7.95439C165.042 8.36382 164.75 8.78885 164.106 8.32093C163.59 7.9002 162.98 7.60974 162.328 7.47402C161.676 7.3383 161 7.3613 160.359 7.54107C159.661 7.71211 159.032 8.09518 158.56 8.63767C158.088 9.18016 157.796 9.85546 157.723 10.5708C157.485 12.2904 158.308 13.5967 159.723 14.4702C160.309 14.859 161.001 15.0565 161.703 15.0356C162.406 15.0146 163.085 14.7762 163.646 14.3532C164.075 14.0646 164.477 13.4758 165.097 14.1543C165.639 14.747 165.666 15.1525 164.956 15.6672C164.048 16.3357 162.963 16.7227 161.837 16.7803C160.71 16.8378 159.592 16.5633 158.62 15.9909C157.667 15.416 156.907 14.5705 156.436 13.562C155.965 12.5536 155.805 11.4278 155.976 10.3281C156.147 9.22834 156.641 8.20437 157.396 7.38655C158.151 6.56873 159.132 5.99405 160.215 5.73568C160.711 5.66111 161.211 5.61943 161.712 5.6109Z" fill="#231E1F"/>
<path d="M138.028 8.33676C136.858 10.9727 135.743 13.4449 134.651 15.9209C134.468 16.3382 134.308 16.7632 133.773 16.7983C133.384 16.8217 132.881 16.9854 132.604 16.6735C132.327 16.3616 132.705 15.9833 132.845 15.6675C134.121 12.7508 135.442 9.8497 136.698 6.92521C136.785 6.64886 136.965 6.41109 137.207 6.25197C137.45 6.09286 137.739 6.02215 138.028 6.05176C138.691 6.05176 139.131 6.19214 139.427 6.88232C140.679 9.8107 142.005 12.7079 143.268 15.6285C143.413 15.9599 143.978 16.3655 143.378 16.7593C143.074 16.891 142.735 16.9129 142.417 16.821C142.1 16.7292 141.824 16.5295 141.638 16.2563C141.248 15.4764 140.901 14.6498 140.531 13.8504C139.732 12.0879 138.913 10.302 138.028 8.33676Z" fill="#231E1F"/>
<path d="M148.411 12.1658C148.411 10.9336 148.392 9.70141 148.411 8.46922C148.411 7.95061 148.271 7.70885 147.717 7.75175C147.164 7.79464 146.703 7.72835 146.2 7.75175C145.514 7.80244 145.241 7.54898 145.241 6.83541C145.241 6.12183 145.475 5.88397 146.177 5.89567C148.392 5.92427 150.601 5.92427 152.806 5.89567C153.488 5.89567 153.672 6.17642 153.66 6.80811C153.648 7.4398 153.578 7.79854 152.845 7.77124C152.112 7.74395 151.036 7.41251 150.564 7.92722C150.033 8.50822 150.404 9.55323 150.392 10.3916C150.361 12.1931 150.365 13.9946 150.392 15.7921C150.392 16.572 150.111 16.8567 149.324 16.8411C148.536 16.8255 148.376 16.4511 148.392 15.7648C148.431 14.5639 148.411 13.3668 148.411 12.1658Z" fill="#231E1F"/>
<path d="M96.6947 11.3081C96.6947 9.82247 96.722 8.33683 96.6947 6.85119C96.6752 6.12202 96.991 5.93485 97.6578 5.91925C98.3246 5.90366 98.6132 6.11422 98.6015 6.83559C98.5664 9.14399 98.6405 11.4563 98.5664 13.7608C98.5352 14.7161 98.8549 14.954 99.7362 14.8838C100.617 14.8136 101.635 14.8838 102.583 14.8604C103.327 14.837 103.565 15.145 103.561 15.8781C103.557 16.6112 103.226 16.7126 102.622 16.7048C100.945 16.6814 99.2682 16.6658 97.5915 16.7048C96.8585 16.7048 96.6713 16.4357 96.6908 15.7572C96.7298 14.2638 96.6947 12.7782 96.6947 11.3081Z" fill="#231E1F"/>
<path d="M67.4734 11.3081C67.4734 9.85756 67.5046 8.39922 67.4734 6.94867C67.45 6.2078 67.7697 6.04793 68.4365 6.04403C69.1033 6.04013 69.4113 6.17271 69.3996 6.92917C69.3645 9.93165 69.3723 12.9341 69.3996 15.9366C69.3996 16.5995 69.1696 16.8412 68.5184 16.8256C67.8672 16.81 67.4656 16.7321 67.4812 15.9561C67.4968 14.4276 67.4734 12.8678 67.4734 11.3081Z" fill="#231E1F"/>
<path d="M90.3622 6.07893C88.9312 5.74359 87.4651 6.00094 86.0184 5.91126C85.2385 5.86057 84.9344 6.12962 84.9578 6.92898C85.0046 8.44582 84.9578 9.95875 84.9578 11.4756C84.9578 12.9924 84.9578 14.6301 84.9578 16.2055C84.9578 17.0243 85.5193 16.8644 86.0067 16.8917C86.4941 16.919 86.8802 16.8449 86.8412 16.1977C86.8061 15.6323 86.8763 15.0591 86.8412 14.4976C86.7749 13.8035 87.0751 13.6202 87.7146 13.6631C88.4082 13.7002 89.1033 13.7002 89.7968 13.6631C91.7855 13.5734 93.0957 12.5596 93.47 10.8478C93.9847 8.45751 92.8266 6.65603 90.3622 6.07893ZM89.2392 11.8382C89.1106 11.8382 88.9858 11.807 88.8493 11.8031C86.8334 11.7056 86.8334 11.7056 86.8334 9.53373C86.9503 8.98002 86.4824 7.974 87.0517 7.70105C87.8316 7.33451 88.8532 7.47099 89.754 7.67375C91.0797 7.974 91.5359 8.5082 91.5398 9.62341C91.5554 11.1091 90.7249 11.9045 89.2392 11.8382Z" fill="#231E1F"/>
<path d="M78.5125 6.03998C77.1321 5.78652 75.7322 5.98539 74.3441 5.9113C73.6032 5.87231 73.3342 6.17646 73.3498 6.91343C73.3849 8.43026 73.3498 9.9471 73.3498 11.4639C73.3498 13.0432 73.3498 14.6263 73.3498 16.2055C73.3498 16.9386 73.8138 16.8879 74.3051 16.8918C74.7964 16.8957 75.2838 16.9269 75.237 16.1899C75.2019 15.6557 75.2721 15.1137 75.237 14.5795C75.1707 13.8932 75.3735 13.593 76.1183 13.6592C76.8129 13.706 77.5098 13.706 78.2044 13.6592C80.0878 13.5696 81.5617 12.4544 81.862 10.9297C82.3572 8.33668 81.1172 6.5196 78.5125 6.03998ZM79.9279 10.0446C79.7836 11.1286 79.2689 11.6511 78.1615 11.7954C77.8503 11.8246 77.5369 11.8246 77.2257 11.7954C75.2487 11.6979 75.2487 11.6979 75.2487 9.54157C75.3501 8.98397 74.9095 7.98184 75.4476 7.70109C76.1729 7.31116 77.175 7.48663 78.0406 7.6465C79.538 7.93115 80.1151 8.68372 79.9279 10.0446Z" fill="#231E1F"/>
</svg>
